<svg width="418" height="418" viewBox="0 0 418 418" fill="none" xmlns="http://www.w3.org/2000/svg">
<g clip-path="url(#clip0_2_121)">
<path d="M319.03 232.29C310.4 274 278.53 307.19 237.57 317.78C237.51 317.8 237.46 317.85 237.46 317.92V416.97C237.46 417.06 237.54 417.13 237.63 417.12C277.28 411.8 313.39 395.35 342.78 371.08C342.87 371 343.02 371.07 343.02 371.19V405.21C343.02 405.29 343.09 405.36 343.17 405.36H417.63C417.71 405.36 417.78 405.29 417.78 405.21V232.33C417.78 232.25 417.71 232.18 417.63 232.18H319.17C319.1 232.18 319.04 232.23 319.03 232.29Z" fill="#C01920"/>
<path d="M209.5 97.65C263.47 97.65 308.5 135.87 319.03 186.72C319.04 186.79 319.1 186.83 319.17 186.83H417.61C417.7 186.83 417.77 186.75 417.76 186.67C406.38 81.75 317.57 0.0700049 209.64 4.93165e-06C94.29 -0.0799951 -0.199988 94.51 1.17345e-05 209.87C0.190012 317.95 82.22 406.83 187.42 417.85C187.51 417.85 187.58 417.79 187.58 417.7V319.31C187.58 319.24 187.53 319.18 187.46 319.17C136.24 308.94 97.64 263.73 97.64 209.5C97.64 147.72 147.72 97.64 209.5 97.64" fill="#1E1E1F"/>
</g>
<defs>
<clipPath id="clip0_2_121">
<rect width="417.78" height="417.85" fill="white"/>
</clipPath>
</defs>
</svg>
