<svg width="843" height="228" viewBox="0 0 843 228" fill="none" xmlns="http://www.w3.org/2000/svg">
<g clip-path="url(#clip0_2_141)">
<path d="M137.51 112.14C134.44 106.51 130.15 101.83 124.78 98.25C119.52 94.74 113.3 91.78 106.28 89.44C99.36 87.13 91.83 85.29 83.91 83.97C74.81 82.02 67.02 80.17 60.78 78.46C54.6 76.78 49.7 75 46.22 73.18C42.89 71.44 40.49 69.48 39.1 67.35C37.73 65.27 37.04 62.72 37.04 59.78C37.04 52.68 39.97 47.69 45.98 44.54C52.27 41.24 60.2 39.56 69.56 39.56C80 39.56 88.72 41.79 95.47 46.18C102.11 50.5 105.56 57.39 106.03 67.25L106.1 68.81C106.1 68.81 106.12 68.86 106.15 68.86H136.15C136.15 68.86 136.2 68.84 136.2 68.81L136.23 67.2C136.57 50.34 130.99 36.78 119.65 26.88C108.39 17.05 91.95 12.06 70.79 12.06C57.01 12.06 45.11 14.09 35.44 18.1C25.66 22.15 18.17 27.81 13.17 34.94C8.15004 42.09 5.60003 50.2 5.60003 59.05C5.60003 66.89 7.43004 73.77 11.03 79.52C14.6 85.21 19.54 90.07 25.71 93.96C31.78 97.79 38.74 100.99 46.39 103.49C53.97 105.96 61.91 107.97 69.99 109.45C79.56 111.24 87.54 113.09 93.69 114.94C99.66 116.75 104.12 118.95 106.96 121.48C109.64 123.88 110.95 127.13 110.95 131.42C110.95 135.71 109.77 139.64 107.45 142.86C105.12 146.1 101.44 148.67 96.53 150.51C91.49 152.4 84.98 153.36 77.18 153.36C68.4 153.36 60.53 152.03 53.79 149.41C47.11 146.82 41.7 143.17 37.72 138.56C33.78 134.01 31.47 128.81 30.86 123.12L30.7 121.66C30.7 121.66 30.68 121.62 30.65 121.62H0.460035C0.460035 121.62 0.420035 121.64 0.410035 121.66L0.210035 123.07C-0.309965 126.74 0.160035 131.16 1.61003 136.21C3.05003 141.21 5.61003 146.39 9.23003 151.6C12.85 156.82 17.74 161.72 23.77 166.15C29.8 170.59 37.21 174.23 45.79 176.98C54.37 179.73 64.52 181.12 75.97 181.12C91.06 181.12 103.58 179.05 113.19 174.95C122.89 170.82 130.22 165.06 134.98 157.83C139.74 150.61 142.15 142.22 142.15 132.9C142.15 124.77 140.59 117.79 137.51 112.15V112.14Z" fill="#1E1E1F"/>
<path d="M196.5 51.94H165.65C165.622 51.94 165.6 51.9624 165.6 51.99V177.85C165.6 177.878 165.622 177.9 165.65 177.9H196.5C196.528 177.9 196.55 177.878 196.55 177.85V51.99C196.55 51.9624 196.528 51.94 196.5 51.94Z" fill="#1E1E1F"/>
<path d="M163.14 0.05V29.67C163.14 29.67 163.16 29.72 163.19 29.72H199.21C199.21 29.72 199.26 29.7 199.26 29.67V11.43C199.26 5.12 194.14 0 187.83 0H163.19C163.19 0 163.14 0.02 163.14 0.05Z" fill="#C01920"/>
<path d="M301.01 51.94H300.99C298.05 51.13 294.95 50.48 291.79 49.99C288.52 49.49 285.08 49.23 281.56 49.23C269.54 49.23 258.66 51.52 249.2 56.04C239.69 60.59 232.17 67.09 226.85 75.36C221.53 83.64 218.83 93.55 218.83 104.83C218.83 116.11 221.62 125.96 227.12 134.08C232.61 142.19 240.22 148.44 249.74 152.65C249.92 152.73 250.09 152.8 250.27 152.88C248.91 153.01 247.56 153.18 246.24 153.37C239.32 154.39 233.66 156.67 229.42 160.13C225.01 163.73 222.77 169.14 222.77 176.21C222.77 179.74 223.49 183.01 224.91 185.93C226.34 188.87 228.58 191.48 231.58 193.69C234.54 195.87 238.52 197.54 243.41 198.65C248.19 199.74 253.99 200.29 260.65 200.29H293.88C302.03 200.29 308.41 201.85 312.86 204.91C317.17 207.88 319.27 212.98 319.27 220.5V227.77C319.27 227.77 319.3 227.85 319.35 227.85H350.14C350.14 227.85 350.22 227.82 350.22 227.77V215.08C350.22 204.91 348 196.75 343.61 190.82C339.23 184.89 333.02 180.63 325.16 178.15C317.48 175.73 308.45 174.5 298.31 174.5H263.36C260.4 174.5 258.06 173.96 256.41 172.91C254.08 171.41 253.08 167.9 254.26 165.39C254.96 163.9 256.54 162.41 260 161.45C264.85 160.1 272.11 159.25 281.61 158.93C283.93 158.93 286.21 158.85 288.43 158.7L296.59 158.42L294.66 158.05C301.65 157.06 308.09 155.25 313.91 152.63C323.27 148.42 330.71 142.25 336.03 134.31C341.37 126.35 344.07 116.68 344.07 105.56C344.07 98.92 342.68 92.87 339.94 87.55C337.31 82.46 333.72 77.83 329.26 73.77C329.2 73.71 329.26 73.62 329.33 73.64C330.82 74.12 332.34 74.59 333.89 75.05C341.98 77.47 350.15 78.61 358.16 78.44L359.74 78.41C359.74 78.41 359.82 78.37 359.82 78.33V52.26C359.82 52.26 359.79 52.18 359.74 52.18L301.02 51.93L301.01 51.94ZM249.29 104.83C249.29 98.46 250.69 93.01 253.46 88.62C256.23 84.24 260.09 80.85 264.94 78.53C269.86 76.19 275.45 75 281.57 75C287.69 75 293.48 76.19 298.31 78.52C303.08 80.83 306.9 84.26 309.67 88.72C312.44 93.19 313.85 98.6 313.85 104.81C313.85 111.02 312.45 116.34 309.69 120.64C306.92 124.95 303.1 128.3 298.31 130.62C293.48 132.96 287.84 134.14 281.57 134.14C275.3 134.14 269.66 132.95 264.83 130.62C260.05 128.31 256.22 124.95 253.45 120.64C250.69 116.35 249.29 111.02 249.29 104.82V104.83Z" fill="#1E1E1F"/>
<path d="M475.44 124.1C472.55 138.08 461.87 149.2 448.14 152.75C448.12 152.75 448.1 152.77 448.1 152.8V185.99C448.1 185.99 448.13 186.04 448.16 186.04C461.45 184.26 473.55 178.75 483.4 170.61C483.43 170.58 483.48 170.61 483.48 170.65V182.05C483.48 182.05 483.5 182.1 483.53 182.1H508.48C508.48 182.1 508.53 182.08 508.53 182.05V124.11C508.53 124.11 508.51 124.06 508.48 124.06H475.48C475.48 124.06 475.44 124.08 475.43 124.1H475.44Z" fill="#C01920"/>
<path d="M438.74 78.98C456.83 78.98 471.92 91.79 475.44 108.83C475.44 108.85 475.46 108.87 475.49 108.87H508.48C508.48 108.87 508.53 108.84 508.53 108.82C504.72 73.66 474.95 46.29 438.79 46.27C400.13 46.24 368.47 77.94 368.54 116.6C368.6 152.82 396.09 182.6 431.35 186.3C431.38 186.3 431.4 186.28 431.4 186.25V153.28C431.4 153.28 431.38 153.24 431.36 153.23C414.19 149.8 401.26 134.65 401.26 116.48C401.26 95.78 418.04 79 438.74 79" fill="#1E1E1F"/>
<path d="M592.56 119.72C592.23 123.28 591.09 126.34 589.14 128.89C587.19 131.45 584.59 133.39 581.34 134.73C578.09 136.07 574.35 136.73 570.12 136.73C565.56 136.73 561.43 135.9 557.74 134.23C554.04 132.56 551.11 130.12 548.94 126.89C546.77 123.67 545.69 119.75 545.69 115.13C545.69 110.51 546.77 106.6 548.94 103.37C551.11 100.15 554.04 97.67 557.74 95.95C561.44 94.23 565.57 93.36 570.12 93.36C574.34 93.36 578.07 94.04 581.3 95.4C584.52 96.76 587.11 98.69 589.06 101.2C591.01 103.7 592.15 106.73 592.48 110.29H583.97C583.02 107.34 581.31 105.05 578.84 103.41C576.37 101.77 573.46 100.95 570.12 100.95C567.4 100.95 564.89 101.49 562.61 102.58C560.33 103.66 558.51 105.25 557.15 107.33C555.79 109.41 555.11 112.01 555.11 115.13C555.11 118.25 555.79 120.77 557.15 122.89C558.51 125 560.33 126.57 562.61 127.6C564.89 128.63 567.39 129.14 570.12 129.14C573.79 129.14 576.8 128.32 579.17 126.68C581.53 125.04 583.16 122.72 584.05 119.72H592.56Z" fill="#1E1E1F"/>
<path d="M600.73 94.28H609.99V135.81H600.73V94.28ZM625 102.2C622 102.2 619.43 102.84 617.29 104.12C615.15 105.4 613.44 106.96 612.16 108.79C610.88 110.62 609.99 112.41 609.49 114.13L609.41 109.46C609.46 108.85 609.66 107.92 609.99 106.67C610.32 105.42 610.84 104.04 611.53 102.54C612.22 101.04 613.17 99.58 614.37 98.16C615.57 96.74 617.04 95.59 618.79 94.7C620.54 93.81 622.61 93.37 625 93.37V102.21V102.2Z" fill="#1E1E1F"/>
<path d="M666.7 122.14H675.62C675.17 124.98 674.08 127.49 672.33 129.69C670.58 131.89 668.2 133.61 665.2 134.86C662.2 136.11 658.61 136.74 654.44 136.74C649.71 136.74 645.49 135.86 641.76 134.11C638.03 132.36 635.12 129.87 633 126.65C630.89 123.43 629.83 119.59 629.83 115.14C629.83 110.69 630.86 106.91 632.92 103.63C634.98 100.35 637.83 97.82 641.47 96.04C645.11 94.26 649.32 93.37 654.1 93.37C658.88 93.37 663.18 94.25 666.48 96C669.79 97.75 672.25 100.36 673.86 103.84C675.47 107.32 676.14 111.69 675.86 116.98H639.25C639.53 119.31 640.29 121.41 641.54 123.28C642.79 125.14 644.5 126.59 646.67 127.62C648.84 128.65 651.37 129.16 654.26 129.16C657.48 129.16 660.19 128.52 662.39 127.24C664.59 125.96 666.02 124.27 666.69 122.15L666.7 122.14ZM653.85 100.87C650.07 100.87 646.96 101.8 644.51 103.66C642.06 105.52 640.48 107.9 639.76 110.79H666.53C666.31 107.68 665.06 105.24 662.78 103.49C660.5 101.74 657.53 100.86 653.86 100.86L653.85 100.87ZM649.02 85.69L659.44 72.43H671.7L657.77 85.69H649.01H649.02Z" fill="#1E1E1F"/>
<path d="M702.64 136.73C698.8 136.73 695.31 135.81 692.17 133.98C689.03 132.15 686.54 129.6 684.71 126.35C682.88 123.1 681.96 119.36 681.96 115.13C681.96 110.9 682.86 107 684.67 103.75C686.48 100.5 688.92 97.95 692.01 96.12C695.1 94.29 698.64 93.37 702.64 93.37C706.14 93.37 709.09 93.94 711.48 95.08C713.87 96.22 715.76 97.78 717.15 99.75C718.54 101.72 719.55 104.02 720.19 106.63C720.83 109.24 721.15 112.08 721.15 115.14C721.15 117.42 720.82 119.82 720.15 122.35C719.48 124.88 718.44 127.23 717.02 129.4C715.6 131.57 713.71 133.33 711.35 134.7C708.99 136.06 706.08 136.74 702.63 136.74L702.64 136.73ZM705.48 129.06C708.59 129.06 711.25 128.46 713.44 127.27C715.64 126.08 717.3 124.42 718.44 122.31C719.58 120.2 720.15 117.81 720.15 115.14C720.15 112.19 719.57 109.68 718.4 107.59C717.23 105.5 715.56 103.88 713.4 102.71C711.23 101.54 708.59 100.96 705.48 100.96C701.03 100.96 697.58 102.28 695.14 104.92C692.69 107.56 691.47 110.97 691.47 115.14C691.47 117.86 692.07 120.28 693.26 122.4C694.46 124.51 696.11 126.15 698.22 127.32C700.33 128.49 702.75 129.07 705.48 129.07V129.06ZM720.16 77.6H729.5V135.81H720.83C720.72 134.53 720.58 132.95 720.41 131.06C720.24 129.17 720.16 127.47 720.16 125.97V77.6Z" fill="#1E1E1F"/>
<path d="M752.18 76.68V85.6H741.09V76.68H752.18ZM741.92 94.28H751.26V135.81H741.92V94.28Z" fill="#1E1E1F"/>
<path d="M759.44 94.28H788.8V101.87H759.44V94.28ZM769.44 83.11H778.78V135.82H769.44V83.11Z" fill="#1E1E1F"/>
<path d="M818.15 136.73C813.53 136.73 809.39 135.9 805.72 134.23C802.05 132.56 799.16 130.12 797.05 126.89C794.94 123.67 793.88 119.75 793.88 115.13C793.88 110.51 794.94 106.67 797.05 103.41C799.16 100.16 802.05 97.67 805.72 95.95C809.39 94.23 813.53 93.36 818.15 93.36C822.77 93.36 826.88 94.22 830.49 95.95C834.1 97.67 836.95 100.16 839.04 103.41C841.12 106.66 842.17 110.57 842.17 115.13C842.17 119.69 841.13 123.67 839.04 126.89C836.95 130.12 834.11 132.56 830.49 134.23C826.88 135.9 822.76 136.73 818.15 136.73ZM818.15 129.14C820.82 129.14 823.27 128.61 825.49 127.56C827.71 126.5 829.48 124.92 830.79 122.81C832.09 120.7 832.75 118.14 832.75 115.14C832.75 112.14 832.1 109.58 830.79 107.47C829.48 105.36 827.73 103.73 825.54 102.59C823.34 101.45 820.88 100.88 818.16 100.88C815.44 100.88 812.96 101.44 810.74 102.55C808.51 103.66 806.72 105.27 805.36 107.39C804 109.5 803.32 112.09 803.32 115.15C803.32 118.21 803.99 120.71 805.32 122.82C806.65 124.93 808.45 126.52 810.7 127.57C812.95 128.63 815.44 129.15 818.16 129.15L818.15 129.14Z" fill="#1E1E1F"/>
</g>
<defs>
<clipPath id="clip0_2_141">
<rect width="842.17" height="227.87" fill="white"/>
</clipPath>
</defs>
</svg>
