<svg width="566" height="306" viewBox="0 0 566 306" fill="none" xmlns="http://www.w3.org/2000/svg">
<g clip-path="url(#clip0_2_100)">
<path d="M153.052 124.816C149.631 118.546 144.869 113.343 138.881 109.357C133.025 105.45 126.103 102.152 118.299 99.5509C110.591 96.9847 102.214 94.93 93.3956 93.4574C83.2633 91.288 74.6036 89.2245 67.6459 87.3286C60.7675 85.4503 55.3178 83.4749 51.4465 81.4467C47.7339 79.5067 45.0708 77.3285 43.5187 74.9564C41.9932 72.6371 41.226 69.8064 41.226 66.5348C41.226 58.6335 44.4799 53.0867 51.1819 49.5682C58.1749 45.8909 67.0109 44.0303 77.4343 44.0303C89.0569 44.0303 98.7572 46.5082 106.27 51.3936C113.66 56.2085 117.496 63.8717 118.025 74.8417L118.105 76.579C118.105 76.579 118.131 76.6319 118.158 76.6319H151.553C151.553 76.6319 151.606 76.6054 151.606 76.579L151.641 74.7888C152.011 56.0321 145.803 40.935 133.193 29.912C120.662 18.9684 102.364 13.4216 78.81 13.4216C63.466 13.4216 50.2295 15.6791 39.4623 20.1412C28.5804 24.6474 20.2382 30.9526 14.6738 38.8803C9.0829 46.8345 6.25219 55.8645 6.25219 65.7147C6.25219 74.4361 8.28042 82.0993 12.2928 88.4926C16.2611 94.833 21.7638 100.239 28.6333 104.56C35.3882 108.819 43.1307 112.39 51.6581 115.168C60.0973 117.92 68.9334 120.151 77.9193 121.809C88.5719 123.801 97.4432 125.856 104.295 127.92C110.935 129.93 115.909 132.382 119.066 135.195C122.055 137.858 123.51 141.482 123.51 146.262C123.51 151.042 122.205 155.415 119.622 158.996C117.02 162.594 112.937 165.46 107.47 167.514C101.861 169.613 94.6213 170.68 85.9352 170.68C76.1644 170.68 67.4078 169.199 59.9033 166.289C52.4694 163.405 46.4464 159.34 42.0108 154.207C37.628 149.137 35.0619 143.352 34.3741 137.02L34.1977 135.389C34.1977 135.389 34.1712 135.336 34.1448 135.336H0.511416C0.511416 135.336 0.458506 135.354 0.458506 135.38L0.238046 136.95C-0.343968 141.041 0.176317 145.962 1.7989 151.571C3.39503 157.135 6.25219 162.893 10.2822 168.696C14.3122 174.507 19.7532 179.957 26.464 184.895C33.1748 189.834 41.42 193.89 50.9791 196.95C60.5294 200.01 71.8258 201.562 84.5684 201.562C101.359 201.562 115.292 199.252 125.988 194.701C136.791 190.098 144.948 183.687 150.248 175.654C155.548 167.611 158.228 158.281 158.228 147.911C158.228 138.863 156.491 131.094 153.07 124.816H153.052Z" fill="#1E1E1F"/>
<path d="M218.705 57.8046H184.366C184.337 57.8046 184.313 57.8283 184.313 57.8575V197.947C184.313 197.976 184.337 197.999 184.366 197.999H218.705C218.734 197.999 218.758 197.976 218.758 197.947V57.8575C218.758 57.8283 218.734 57.8046 218.705 57.8046Z" fill="#1E1E1F"/>
<path d="M181.58 0.0529104V33.0161C181.58 33.0161 181.606 33.069 181.632 33.069H221.721C221.721 33.069 221.774 33.0425 221.774 33.0161V12.7249C221.774 5.69668 216.077 0 209.049 0H181.632C181.632 0 181.58 0.0264552 181.58 0.0529104Z" fill="#C01920"/>
<path d="M335.029 57.8134H335.011C331.731 56.9139 328.291 56.182 324.773 55.6441C321.131 55.0797 317.304 54.7975 313.388 54.7975C300.011 54.7975 287.894 57.346 277.374 62.3814C266.783 67.4431 258.414 74.6742 252.497 83.8806C246.571 93.0958 243.573 104.128 243.573 116.676C243.573 129.225 246.677 140.195 252.797 149.234C258.908 158.264 267.374 165.213 277.974 169.895C278.168 169.983 278.362 170.072 278.564 170.151C277.048 170.301 275.548 170.477 274.076 170.698C266.377 171.835 260.072 174.375 255.354 178.229C250.443 182.241 247.956 188.255 247.956 196.121C247.956 200.054 248.758 203.687 250.337 206.941C251.924 210.213 254.42 213.123 257.762 215.583C261.06 218.008 265.487 219.86 270.928 221.104C276.254 222.321 282.709 222.929 290.108 222.929H327.092C336.157 222.929 343.265 224.658 348.221 228.079C353.018 231.386 355.355 237.065 355.355 245.434V253.529C355.355 253.573 355.39 253.617 355.443 253.617H389.711C389.756 253.617 389.8 253.582 389.8 253.529V239.411C389.8 228.088 387.322 219.005 382.445 212.4C377.569 205.804 370.655 201.059 361.907 198.299C353.362 195.61 343.309 194.243 332.03 194.243H293.124C289.825 194.243 287.224 193.643 285.39 192.47C282.788 190.804 281.677 186.897 283 184.102C283.785 182.444 285.54 180.786 289.385 179.71C294.781 178.211 302.868 177.267 313.432 176.906C316.016 176.906 318.547 176.818 321.025 176.65L330.099 176.341L327.956 175.927C335.734 174.825 342.903 172.814 349.376 169.895C359.791 165.204 368.08 158.343 373.997 149.498C379.932 140.636 382.948 129.869 382.948 117.496C382.948 110.107 381.405 103.369 378.353 97.4521C375.426 91.7907 371.431 86.6319 366.466 82.1169C366.396 82.0552 366.457 81.9494 366.546 81.9758C368.203 82.5049 369.897 83.0252 371.625 83.5455C380.629 86.2351 389.72 87.505 398.645 87.3198L400.399 87.2845C400.443 87.2845 400.488 87.2492 400.488 87.1963V58.175C400.488 58.1309 400.452 58.0868 400.399 58.0868L335.037 57.8046L335.029 57.8134ZM277.462 116.676C277.462 109.586 279.023 103.519 282.101 98.6426C285.178 93.766 289.482 89.9918 294.878 87.4168C300.355 84.8154 306.58 83.4926 313.388 83.4926C320.196 83.4926 326.642 84.8154 332.022 87.4168C337.33 89.9829 341.589 93.8101 344.667 98.7661C347.754 103.74 349.314 109.763 349.314 116.676C349.314 123.59 347.754 129.507 344.685 134.287C341.607 139.075 337.348 142.814 332.022 145.389C326.642 147.99 320.372 149.313 313.388 149.313C306.404 149.313 300.134 147.99 294.755 145.389C289.437 142.814 285.178 139.075 282.092 134.287C279.014 129.507 277.462 123.581 277.462 116.676Z" fill="#1E1E1F"/>
<path d="M529.174 138.123C525.955 153.678 514.068 166.059 498.795 170.01C498.768 170.01 498.751 170.036 498.751 170.063V207.003C498.751 207.003 498.777 207.065 498.812 207.056C513.601 205.072 527.067 198.934 538.037 189.887C538.072 189.86 538.125 189.887 538.125 189.931V202.62C538.125 202.62 538.151 202.673 538.178 202.673H565.956C565.956 202.673 566.009 202.647 566.009 202.62V138.14C566.009 138.14 565.982 138.087 565.956 138.087H529.227C529.227 138.087 529.183 138.105 529.174 138.131V138.123Z" fill="#C01920"/>
<path d="M488.319 87.9018C508.451 87.9018 525.25 102.161 529.174 121.121C529.174 121.147 529.201 121.165 529.227 121.165H565.947C565.947 121.165 566.009 121.138 566 121.103C561.758 81.9758 528.628 51.5083 488.38 51.4818C445.355 51.4554 410.108 86.7378 410.188 129.763C410.258 170.072 440.849 203.229 480.091 207.338C480.126 207.338 480.153 207.312 480.153 207.285V170.592C480.153 170.592 480.135 170.548 480.109 170.539C461.008 166.721 446.608 149.86 446.608 129.63C446.608 106.588 465.285 87.9106 488.327 87.9106" fill="#1E1E1F"/>
<path d="M54.7888 286.942C54.4184 290.901 53.1486 294.305 50.9792 297.154C48.8099 300.002 45.9175 302.162 42.3019 303.653C38.6776 305.134 34.5153 305.884 29.8151 305.884C24.7445 305.884 20.1413 304.958 16.0319 303.097C11.9137 301.236 8.65092 298.52 6.2435 294.931C3.82726 291.342 2.61914 286.977 2.61914 281.845C2.61914 276.712 3.82726 272.347 6.2435 268.758C8.65974 265.169 11.9225 262.418 16.0319 260.495C20.1501 258.582 24.7445 257.621 29.8151 257.621C34.5153 257.621 38.6599 258.379 42.249 259.896C45.8381 261.413 48.7129 263.564 50.8822 266.351C53.0516 269.137 54.3126 272.506 54.6918 276.466H45.2208C44.1714 273.185 42.2667 270.637 39.5153 268.811C36.764 266.986 33.5276 266.069 29.8151 266.069C26.7815 266.069 23.9949 266.668 21.4641 267.876C18.9244 269.085 16.8961 270.848 15.3882 273.167C13.8714 275.487 13.113 278.379 13.113 281.845C13.113 285.31 13.8714 288.123 15.3882 290.478C16.9049 292.832 18.9332 294.579 21.4641 295.725C24.0038 296.871 26.7815 297.445 29.8151 297.445C33.898 297.445 37.2578 296.536 39.8857 294.702C42.5136 292.877 44.3213 290.293 45.3178 286.951H54.7888V286.942Z" fill="#1E1E1F"/>
<path d="M63.8892 258.635H74.189V304.861H63.8892V258.635ZM90.8999 267.453C87.5577 267.453 84.6918 268.167 82.3108 269.587C79.9298 271.007 78.0251 272.744 76.6053 274.781C75.1855 276.827 74.1891 278.802 73.6335 280.725L73.5453 275.531C73.607 274.852 73.8275 273.811 74.1979 272.418C74.5682 271.025 75.1414 269.49 75.9175 267.824C76.6935 266.157 77.7429 264.525 79.0744 262.947C80.406 261.368 82.0462 260.09 83.9951 259.093C85.944 258.106 88.2456 257.612 90.9087 257.612V267.453H90.8999Z" fill="#1E1E1F"/>
<path d="M137.311 289.631H147.241C146.747 292.788 145.521 295.584 143.572 298.035C141.623 300.478 138.978 302.4 135.636 303.794C132.294 305.187 128.299 305.884 123.66 305.884C118.396 305.884 113.696 304.905 109.551 302.956C105.406 301.007 102.152 298.238 99.8067 294.649C97.4521 291.06 96.2793 286.792 96.2793 281.836C96.2793 276.88 97.4257 272.674 99.7097 269.023C102.002 265.372 105.168 262.559 109.225 260.575C113.281 258.591 117.964 257.603 123.29 257.603C128.616 257.603 133.396 258.582 137.073 260.531C140.75 262.48 143.493 265.39 145.292 269.252C147.082 273.123 147.832 277.991 147.523 283.873H106.773C107.082 286.474 107.937 288.811 109.322 290.884C110.715 292.956 112.62 294.57 115.027 295.707C117.443 296.854 120.257 297.427 123.475 297.427C127.064 297.427 130.08 296.713 132.523 295.293C134.966 293.873 136.562 291.986 137.302 289.631H137.311ZM123.017 265.963C118.81 265.963 115.345 267.003 112.62 269.076C109.895 271.148 108.131 273.794 107.329 277.012H137.126C136.879 273.547 135.486 270.839 132.946 268.891C130.406 266.942 127.1 265.963 123.017 265.963ZM117.629 249.076L129.234 234.314H142.876L127.373 249.076H117.629Z" fill="#1E1E1F"/>
<path d="M177.32 305.875C173.052 305.875 169.163 304.852 165.671 302.815C162.17 300.769 159.401 297.938 157.364 294.323C155.318 290.698 154.304 286.545 154.304 281.836C154.304 277.127 155.309 272.788 157.32 269.164C159.331 265.548 162.056 262.709 165.486 260.672C168.916 258.626 172.867 257.612 177.32 257.612C181.218 257.612 184.498 258.247 187.162 259.517C189.825 260.786 191.923 262.515 193.476 264.711C195.019 266.906 196.147 269.464 196.862 272.365C197.576 275.275 197.929 278.432 197.929 281.836C197.929 284.376 197.558 287.048 196.818 289.861C196.077 292.674 194.913 295.293 193.334 297.7C191.756 300.117 189.648 302.074 187.02 303.591C184.393 305.108 181.156 305.866 177.32 305.866V305.875ZM180.477 297.339C183.943 297.339 186.897 296.677 189.34 295.346C191.782 294.014 193.643 292.18 194.913 289.825C196.183 287.471 196.818 284.817 196.818 281.845C196.818 278.564 196.165 275.769 194.869 273.441C193.573 271.122 191.712 269.314 189.296 268.009C186.879 266.712 183.943 266.06 180.477 266.06C175.53 266.06 171.685 267.533 168.969 270.469C166.244 273.406 164.886 277.198 164.886 281.836C164.886 284.87 165.548 287.559 166.879 289.914C168.211 292.268 170.054 294.094 172.4 295.39C174.754 296.686 177.444 297.339 180.477 297.339ZM196.809 240.072H207.206V304.861H197.55C197.426 303.441 197.267 301.677 197.082 299.57C196.897 297.462 196.8 295.575 196.8 293.908V240.072H196.809Z" fill="#1E1E1F"/>
<path d="M232.453 239.049V248.979H220.107V239.049H232.453ZM221.033 258.635H231.43V304.861H221.033V258.635Z" fill="#1E1E1F"/>
<path d="M240.531 258.635H273.203V267.083H240.531V258.635ZM251.668 246.192H262.065V304.852H251.668V246.192Z" fill="#1E1E1F"/>
<path d="M305.875 305.875C300.734 305.875 296.131 304.949 292.048 303.088C287.965 301.228 284.746 298.512 282.392 294.922C280.037 291.333 278.864 286.968 278.864 281.836C278.864 276.704 280.037 272.418 282.392 268.794C284.746 265.178 287.965 262.409 292.048 260.487C296.131 258.573 300.743 257.612 305.875 257.612C311.007 257.612 315.593 258.573 319.614 260.487C323.635 262.409 326.81 265.178 329.129 268.794C331.448 272.418 332.612 276.765 332.612 281.836C332.612 286.907 331.448 291.333 329.129 294.922C326.81 298.512 323.635 301.236 319.614 303.088C315.593 304.94 311.016 305.875 305.875 305.875ZM305.875 297.436C308.847 297.436 311.572 296.845 314.041 295.672C316.519 294.499 318.476 292.736 319.932 290.381C321.387 288.026 322.11 285.187 322.11 281.845C322.11 278.503 321.378 275.654 319.932 273.309C318.476 270.954 316.528 269.146 314.085 267.876C311.642 266.607 308.9 265.972 305.866 265.972C302.833 265.972 300.081 266.589 297.603 267.832C295.125 269.067 293.132 270.866 291.616 273.212C290.099 275.566 289.34 278.441 289.34 281.845C289.34 285.249 290.081 288.035 291.572 290.381C293.053 292.736 295.055 294.499 297.559 295.672C300.064 296.845 302.833 297.436 305.866 297.436H305.875Z" fill="#1E1E1F"/>
</g>
<defs>
<clipPath id="clip0_2_100">
<rect width="566" height="305.875" fill="white"/>
</clipPath>
</defs>
</svg>
