<svg width="566" height="306" viewBox="0 0 566 306" fill="none" xmlns="http://www.w3.org/2000/svg">
<g clip-path="url(#clip0_2_82)">
<path d="M153.052 124.867C149.631 118.594 144.869 113.389 138.881 109.402C133.025 105.494 126.103 102.194 118.299 99.5916C110.591 97.0244 102.214 94.9689 93.3956 93.4956C83.2633 91.3254 74.6036 89.261 67.6459 87.3643C60.7675 85.4852 55.3178 83.5091 51.4465 81.48C47.7339 79.5392 45.0708 77.3602 43.5187 74.987C41.9932 72.6668 41.226 69.835 41.226 66.562C41.226 58.6575 44.4799 53.1085 51.1819 49.5885C58.1749 45.9097 67.0109 44.0483 77.4343 44.0483C89.0569 44.0483 98.7572 46.5272 106.27 51.4146C113.66 56.2315 117.496 63.8978 118.025 74.8723L118.105 76.6103C118.105 76.6103 118.131 76.6632 118.158 76.6632H151.553C151.553 76.6632 151.606 76.6367 151.606 76.6103L151.641 74.8194C152.011 56.055 145.803 40.9517 133.193 29.9242C120.662 18.9761 102.364 13.4271 78.81 13.4271C63.466 13.4271 50.2295 15.6855 39.4623 20.1495C28.5804 24.6575 20.2382 30.9652 14.6738 38.8962C9.0829 46.8537 6.25219 55.8874 6.25219 65.7416C6.25219 74.4665 8.28042 82.1329 12.2928 88.5288C16.2611 94.8718 21.7638 100.28 28.6333 104.602C35.3882 108.864 43.1307 112.436 51.6581 115.215C60.0973 117.968 68.9334 120.2 77.9193 121.858C88.5719 123.852 97.4432 125.908 104.295 127.972C110.935 129.983 115.909 132.436 119.066 135.25C122.055 137.914 123.51 141.54 123.51 146.322C123.51 151.103 122.205 155.479 119.622 159.061C117.02 162.66 112.937 165.527 107.47 167.583C101.861 169.682 94.6213 170.75 85.9352 170.75C76.1644 170.75 67.4078 169.268 59.9033 166.357C52.4694 163.472 46.4464 159.405 42.0108 154.27C37.628 149.198 35.0619 143.41 34.3741 137.076L34.1977 135.444C34.1977 135.444 34.1712 135.391 34.1448 135.391H0.511416C0.511416 135.391 0.458506 135.409 0.458506 135.435L0.238046 137.006C-0.343968 141.099 0.176317 146.022 1.7989 151.633C3.39503 157.199 6.25219 162.96 10.2822 168.765C14.3122 174.579 19.7532 180.031 26.464 184.971C33.1748 189.911 41.42 193.969 50.9791 197.031C60.5294 200.092 71.8258 201.645 84.5684 201.645C101.359 201.645 115.292 199.333 125.988 194.781C136.791 190.176 144.948 183.762 150.248 175.725C155.548 167.68 158.228 158.346 158.228 147.971C158.228 138.92 156.491 131.148 153.07 124.867H153.052Z" fill="#EEEEEE"/>
<path d="M218.705 57.8282H184.366C184.337 57.8282 184.313 57.8519 184.313 57.8812V198.028C184.313 198.057 184.337 198.08 184.366 198.08H218.705C218.734 198.08 218.758 198.057 218.758 198.028V57.8812C218.758 57.8519 218.734 57.8282 218.705 57.8282Z" fill="#EEEEEE"/>
<path d="M181.58 0.052932V33.0296C181.58 33.0296 181.606 33.0825 181.632 33.0825H221.721C221.721 33.0825 221.774 33.056 221.774 33.0296V12.7302C221.774 5.69901 216.077 0 209.049 0H181.632C181.632 0 181.58 0.026466 181.58 0.052932Z" fill="#C01920"/>
<path d="M335.029 57.8371H335.011C331.731 56.9372 328.291 56.205 324.773 55.6668C321.131 55.1022 317.304 54.8199 313.388 54.8199C300.011 54.8199 287.894 57.3695 277.374 62.4069C266.783 67.4707 258.414 74.7047 252.497 83.9149C246.571 93.1339 243.573 104.17 243.573 116.724C243.573 129.278 246.677 140.252 252.797 149.295C258.908 158.328 267.374 165.28 277.974 169.965C278.168 170.053 278.362 170.141 278.564 170.221C277.048 170.371 275.548 170.547 274.076 170.768C266.377 171.906 260.072 174.446 255.354 178.302C250.443 182.316 247.956 188.332 247.956 196.201C247.956 200.136 248.758 203.771 250.337 207.026C251.924 210.299 254.42 213.21 257.762 215.672C261.06 218.098 265.487 219.95 270.928 221.194C276.254 222.412 282.709 223.02 290.108 223.02H327.092C336.157 223.02 343.265 224.749 348.221 228.172C353.018 231.481 355.355 237.162 355.355 245.534V253.633C355.355 253.677 355.39 253.721 355.443 253.721H389.711C389.756 253.721 389.8 253.686 389.8 253.633V239.509C389.8 228.181 387.322 219.094 382.445 212.487C377.569 205.888 370.655 201.142 361.907 198.38C353.362 195.69 343.309 194.322 332.03 194.322H293.124C289.825 194.322 287.224 193.722 285.39 192.549C282.788 190.882 281.677 186.974 283 184.177C283.785 182.518 285.54 180.86 289.385 179.784C294.781 178.284 302.868 177.34 313.432 176.978C316.016 176.978 318.547 176.89 321.025 176.722L330.099 176.414L327.956 175.999C335.734 174.896 342.903 172.885 349.376 169.965C359.791 165.271 368.08 158.408 373.997 149.559C379.932 140.693 382.948 129.922 382.948 117.544C382.948 110.152 381.405 103.412 378.353 97.492C375.426 91.8282 371.431 86.6674 366.466 82.1505C366.396 82.0887 366.457 81.9829 366.546 82.0093C368.203 82.5387 369.897 83.0592 371.625 83.5797C380.629 86.2704 389.72 87.5407 398.645 87.3555L400.399 87.3202C400.443 87.3202 400.488 87.2849 400.488 87.232V58.1988C400.488 58.1547 400.452 58.1105 400.399 58.1105L335.037 57.8282L335.029 57.8371ZM277.462 116.724C277.462 109.631 279.023 103.562 282.101 98.6829C285.178 93.8044 289.482 90.0285 294.878 87.4525C300.355 84.85 306.58 83.5267 313.388 83.5267C320.196 83.5267 326.642 84.85 332.022 87.4525C337.33 90.0197 341.589 93.8485 344.667 98.8064C347.754 103.782 349.314 109.807 349.314 116.724C349.314 123.64 347.754 129.56 344.685 134.341C341.607 139.132 337.348 142.872 332.022 145.448C326.642 148.051 320.372 149.374 313.388 149.374C306.404 149.374 300.134 148.051 294.755 145.448C289.437 142.872 285.178 139.132 282.092 134.341C279.014 129.56 277.462 123.632 277.462 116.724Z" fill="#EEEEEE"/>
<path d="M529.174 138.179C525.955 153.741 514.068 166.127 498.795 170.079C498.768 170.079 498.751 170.106 498.751 170.132V207.088C498.751 207.088 498.777 207.149 498.812 207.141C513.601 205.156 527.067 199.016 538.037 189.964C538.072 189.938 538.125 189.964 538.125 190.008V202.703C538.125 202.703 538.151 202.756 538.178 202.756H565.956C565.956 202.756 566.009 202.73 566.009 202.703V138.197C566.009 138.197 565.982 138.144 565.956 138.144H529.227C529.227 138.144 529.183 138.161 529.174 138.188V138.179Z" fill="#C01920"/>
<path d="M488.319 87.9377C508.451 87.9377 525.25 102.203 529.174 121.17C529.174 121.197 529.201 121.214 529.227 121.214H565.947C565.947 121.214 566.009 121.188 566 121.153C561.758 82.0093 528.628 51.5293 488.38 51.5029C445.355 51.4764 410.108 86.7732 410.188 129.816C410.258 170.141 440.849 203.312 480.091 207.423C480.126 207.423 480.153 207.396 480.153 207.37V170.662C480.153 170.662 480.135 170.618 480.109 170.609C461.008 166.789 446.608 149.921 446.608 129.683C446.608 106.632 465.285 87.9466 488.327 87.9466" fill="#EEEEEE"/>
<path d="M54.7888 287.059C54.4184 291.02 53.1486 294.426 50.9792 297.275C48.8099 300.125 45.9175 302.286 42.3019 303.777C38.6776 305.259 34.5153 306.009 29.8151 306.009C24.7445 306.009 20.1413 305.083 16.0319 303.221C11.9137 301.36 8.65092 298.642 6.2435 295.052C3.82726 291.461 2.61914 287.094 2.61914 281.96C2.61914 276.826 3.82726 272.459 6.2435 268.868C8.65974 265.278 11.9225 262.525 16.0319 260.602C20.1501 258.688 24.7445 257.726 29.8151 257.726C34.5153 257.726 38.6599 258.485 42.249 260.002C45.8381 261.519 48.7129 263.672 50.8822 266.46C53.0516 269.248 54.3126 272.618 54.6918 276.579H45.2208C44.1714 273.297 42.2667 270.747 39.5153 268.921C36.764 267.095 33.5276 266.177 29.8151 266.177C26.7815 266.177 23.9949 266.777 21.4641 267.986C18.9244 269.195 16.8961 270.959 15.3882 273.279C13.8714 275.599 13.113 278.493 13.113 281.96C13.113 285.427 13.8714 288.241 15.3882 290.597C16.9049 292.952 18.9332 294.699 21.4641 295.846C24.0038 296.993 26.7815 297.566 29.8151 297.566C33.898 297.566 37.2578 296.658 39.8857 294.823C42.5136 292.996 44.3213 290.412 45.3178 287.068H54.7888V287.059Z" fill="#EEEEEE"/>
<path d="M63.8894 258.741H74.1893V304.985H63.8894V258.741ZM90.9002 267.563C87.558 267.563 84.692 268.277 82.311 269.697C79.9301 271.118 78.0253 272.856 76.6055 274.894C75.1858 276.94 74.1893 278.916 73.6337 280.84L73.5456 275.644C73.6073 274.964 73.8277 273.923 74.1981 272.529C74.5685 271.135 75.1417 269.6 75.9177 267.933C76.6937 266.266 77.7431 264.634 79.0747 263.054C80.4063 261.475 82.0465 260.196 83.9954 259.199C85.9442 258.211 88.2458 257.717 90.909 257.717V267.563H90.9002Z" fill="#EEEEEE"/>
<path d="M137.311 289.75H147.241C146.747 292.908 145.521 295.705 143.572 298.157C141.623 300.601 138.978 302.524 135.636 303.918C132.294 305.312 128.299 306.009 123.66 306.009C118.396 306.009 113.696 305.03 109.551 303.08C105.406 301.13 102.152 298.36 99.8067 294.77C97.4521 291.179 96.2793 286.909 96.2793 281.951C96.2793 276.993 97.4257 272.785 99.7097 269.133C102.002 265.481 105.168 262.666 109.225 260.681C113.281 258.696 117.964 257.708 123.29 257.708C128.616 257.708 133.396 258.688 137.073 260.637C140.75 262.587 143.493 265.498 145.292 269.362C147.082 273.235 147.832 278.105 147.523 283.989H106.773C107.082 286.592 107.937 288.929 109.322 291.003C110.715 293.076 112.62 294.69 115.027 295.828C117.443 296.975 120.257 297.549 123.475 297.549C127.064 297.549 130.08 296.834 132.523 295.414C134.966 293.993 136.562 292.105 137.302 289.75H137.311ZM123.017 266.072C118.81 266.072 115.345 267.113 112.62 269.186C109.895 271.259 108.131 273.906 107.329 277.126H137.126C136.879 273.659 135.486 270.95 132.946 269.001C130.406 267.051 127.1 266.072 123.017 266.072ZM117.629 249.177L129.234 234.409H142.876L127.373 249.177H117.629Z" fill="#EEEEEE"/>
<path d="M177.32 306C173.052 306 169.163 304.977 165.671 302.939C162.17 300.892 159.401 298.06 157.364 294.443C155.319 290.817 154.304 286.662 154.304 281.951C154.304 277.24 155.31 272.9 157.32 269.274C159.331 265.657 162.056 262.816 165.486 260.778C168.917 258.732 172.867 257.717 177.32 257.717C181.218 257.717 184.499 258.352 187.162 259.623C189.825 260.893 191.924 262.622 193.476 264.819C195.019 267.016 196.148 269.574 196.862 272.476C197.576 275.388 197.929 278.546 197.929 281.951C197.929 284.492 197.559 287.165 196.818 289.979C196.077 292.793 194.913 295.414 193.335 297.822C191.756 300.239 189.649 302.198 187.021 303.715C184.393 305.232 181.156 305.991 177.32 305.991V306ZM180.477 297.46C183.943 297.46 186.897 296.799 189.34 295.467C191.783 294.134 193.643 292.299 194.913 289.944C196.183 287.588 196.818 284.933 196.818 281.96C196.818 278.678 196.165 275.882 194.869 273.553C193.573 271.232 191.712 269.424 189.296 268.118C186.88 266.822 183.943 266.169 180.477 266.169C175.53 266.169 171.686 267.642 168.969 270.58C166.245 273.517 164.887 277.311 164.887 281.951C164.887 284.986 165.548 287.677 166.879 290.032C168.211 292.388 170.054 294.214 172.4 295.511C174.754 296.807 177.444 297.46 180.477 297.46ZM196.809 240.17H207.206V304.985H197.55C197.426 303.565 197.268 301.801 197.082 299.692C196.897 297.584 196.8 295.696 196.8 294.029V240.17H196.809Z" fill="#EEEEEE"/>
<path d="M232.453 239.147V249.08H220.107V239.147H232.453ZM221.033 258.741H231.43V304.985H221.033V258.741Z" fill="#EEEEEE"/>
<path d="M240.531 258.741H273.203V267.192H240.531V258.741ZM251.668 246.293H262.065V304.977H251.668V246.293Z" fill="#EEEEEE"/>
<path d="M305.875 306C300.734 306 296.131 305.074 292.048 303.212C287.965 301.351 284.746 298.634 282.392 295.043C280.037 291.453 278.864 287.086 278.864 281.951C278.864 276.817 280.037 272.529 282.392 268.903C284.746 265.286 287.965 262.516 292.048 260.593C296.131 258.679 300.743 257.717 305.875 257.717C311.007 257.717 315.593 258.679 319.614 260.593C323.635 262.516 326.81 265.286 329.129 268.903C331.448 272.529 332.612 276.879 332.612 281.951C332.612 287.024 331.448 291.453 329.129 295.043C326.81 298.634 323.635 301.36 319.614 303.212C315.593 305.065 311.016 306 305.875 306ZM305.875 297.557C308.847 297.557 311.572 296.966 314.041 295.793C316.519 294.62 318.476 292.855 319.932 290.5C321.387 288.144 322.11 285.304 322.11 281.96C322.11 278.617 321.378 275.767 319.932 273.42C318.476 271.065 316.528 269.256 314.085 267.986C311.642 266.716 308.9 266.08 305.866 266.08C302.833 266.08 300.081 266.698 297.603 267.942C295.125 269.177 293.132 270.977 291.616 273.323C290.099 275.679 289.34 278.555 289.34 281.96C289.34 285.365 290.081 288.153 291.572 290.5C293.053 292.855 295.055 294.62 297.559 295.793C300.064 296.966 302.833 297.557 305.866 297.557H305.875Z" fill="#EEEEEE"/>
</g>
<defs>
<clipPath id="clip0_2_82">
<rect width="566" height="306" fill="white"/>
</clipPath>
</defs>
</svg>
