<svg xmlns="http://www.w3.org/2000/svg" height="109.965" width="300.8" viewBox="0 0 601.595 219.934">
<title>COPEL</title>
<polygon points="9.438,0,63.271,0,85.363,38.969,53.834,38.969,76.14,77.511,22.306,77.511,0,38.969,30.242,38.969,9.438,0" fill="#F60" clip-rule="evenodd" fill-rule="evenodd"/>
<polygon points="170.08,0,116.03,0,93.728,38.969,125.47,38.969,102.95,77.511,157,77.511,179.09,38.969,148.42,38.969,170.08,0" fill="#F60" clip-rule="evenodd" fill-rule="evenodd"/>
<polygon points="9.708,166.87,62.447,166.87,84.387,128.12,53.376,128.12,75.316,89.998,22.365,89.998,0.214,128.12,29.96,128.12,9.708,166.87" fill="#F60" clip-rule="evenodd" fill-rule="evenodd"/>
<polygon points="170.51,166.87,116.46,166.87,94.157,127.47,125.9,127.47,103.38,88.715,157.43,88.715,179.3,127.47,148.85,127.47,170.51,166.87" fill="#F60" clip-rule="evenodd" fill-rule="evenodd"/>
<path fill="#F60" clip-rule="evenodd" d="M283.01,64.099c-1.695-8.79-7.337-13.248-16.949-13.371-14.096,0.083-21.083,9.78-20.958,29.135-0.042,9.224,1.095,16.527,3.39,21.933,3.079,7.284,9.073,10.978,17.981,11.061,4.444-0.041,8.288-1.279,11.512-3.714s5.126-5.901,5.684-10.379l0.186-2.29h17.506l-0.186,2.476c-0.517,6.294-2.956,11.741-7.316,16.322-4.052,4.291-9.239,7.305-15.564,9.078-4.051,1.218-8.164,1.795-12.36,1.755-12.835-0.083-22.674-4.292-29.494-12.628-5.849-7.181-8.805-17.601-8.846-31.261,0-6.934,0.909-13.495,2.728-19.706,2.336-8.232,6.903-14.464,13.683-18.735,6.511-4.127,14.075-6.211,22.715-6.293,4.96,0.041,9.776,0.825,14.427,2.352,4.836,1.651,8.825,4.044,11.987,7.139,2.253,2.229,4.072,4.849,5.457,7.862,1.364,3.034,2.108,5.963,2.232,8.832v2.6h-17.506l-0.31-2.181zm29.42,18.178c0-8.501,1.322-16.26,3.989-23.275,1.55-4.23,4.071-8.006,7.585-11.307,3.225-3.137,6.801-5.489,10.707-7.016,5.373-2.084,11.223-3.158,17.568-3.198,11.781,0.082,21.082,3.466,27.902,10.151,3.596,3.549,6.221,7.47,7.875,11.741,2.459,6.479,3.699,13.742,3.699,21.748-0.125,29.877-13.248,44.858-39.354,44.982-26.65-0.12-39.98-14.73-39.98-43.823zm17.5-0.97c-0.123,21.108,7.297,31.631,22.281,31.549,14.572,0.164,21.91-10.235,22.033-31.178,0-7.47-1.199-14.073-3.576-19.829-2.936-7.366-9.072-11.081-18.395-11.122-3.266,0-6.365,0.558-9.26,1.692-8.83,3.339-13.19,12.975-13.07,28.884zm75.85-42.135h29.742c3.307,0.083,6.43,0.269,9.385,0.537,3.1,0.372,5.973,1.053,8.598,2.063,4.588,1.775,8.227,4.953,10.893,9.553,2.336,3.983,3.514,8.708,3.514,14.155,0.041,9.512-3.018,16.384-9.197,20.614-5.086,3.466-12.568,5.385-22.406,5.735l-5.992,0.125h-7.029v32.457h-17.506v-85.238h0.02zm17.5,13.248v26.287h7.152c2.418,0.042,4.836-0.082,7.254-0.372,8.352-0.846,12.588-5.2,12.713-13.103,0.041-8.253-4.631-12.504-13.973-12.751l-5.994-0.062h-7.147l-0.003,0.001zm109.48-13.248v13.248h-38.857v21.314h36.5v13.247h-36.5v24.183h40.076v13.247h-57.582v-85.238h56.356,0.004zm30.41,0v71.992h35.9v13.247h-53.408v-85.238h17.51z" fill-rule="evenodd"/>
<path d="M261.5,186.94l-0.105,0.778c1.031,0.625,2.041,1.175,3.013,1.568,0.991,0.4,1.941,0.64,2.832,0.632h0.001c0.159-0.001,0.315,0.02,0.464,0.061,0.134,0.036,0.262,0.089,0.382,0.156,1.985-0.089,3.858-0.718,5.617-1.886,1.782-1.184,3.453-2.921,5.011-5.209,1.618-2.381,2.833-5.007,3.645-7.879,0.811-2.872,1.218-5.994,1.218-9.364,0-1.287-0.104-2.43-0.311-3.424-0.206-0.991-0.514-1.839-0.922-2.54-0.402-0.69-0.884-1.207-1.442-1.548-0.555-0.34-1.193-0.509-1.912-0.509-1.174,0-2.406,0.582-3.699,1.744-1.313,1.181-2.685,2.955-4.115,5.321-1.439,2.385-2.967,5.422-4.582,9.111-1.62,3.68-3.32,8.01-5.1,12.99zm-0.67,4.4c-0.323,1.818-0.687,3.526-1.09,5.125-0.423,1.678-0.891,3.235-1.399,4.669-0.686,1.931-1.338,3.384-1.954,4.358-0.645,1.02-1.265,1.529-1.857,1.529-0.171,0-0.332-0.04-0.482-0.118-0.145-0.075-0.279-0.186-0.405-0.33l-0.004-0.005c-0.117-0.146-0.207-0.303-0.268-0.467-0.062-0.165-0.093-0.338-0.093-0.519,0-1.715,0.87-5.474,2.609-11.295,0.249-0.826,0.513-1.674,0.791-2.543,0.26-0.813,0.532-1.636,0.811-2.466l-0.848-0.56h-0.001c-1.707-1.128-3.444-2.275-5.158-3.125-1.701-0.842-3.385-1.393-5.001-1.341-1.017,0.032-2.205,0.337-3.488,0.831-1.459,0.563-3.042,1.371-4.635,2.308-2.012,1.181-4.028,2.563-5.859,3.929-2.364,1.762-4.419,3.494-5.756,4.729-0.347,0.318-0.792,0.467-1.228,0.45-0.437-0.019-0.868-0.204-1.188-0.551-0.319-0.347-0.468-0.792-0.45-1.229s0.203-0.868,0.551-1.188c1.396-1.288,3.548-3.103,6.032-4.952,1.921-1.43,4.044-2.885,6.171-4.133,1.818-1.068,3.652-1.991,5.388-2.636,1.549-0.574,3.026-0.93,4.354-0.972,2.17-0.069,4.254,0.556,6.276,1.518,2.011,0.956,3.961,2.244,5.877,3.511l0.122,0.081c0.576-1.604,1.193-3.249,1.85-4.935,0.681-1.747,1.396-3.513,2.145-5.297,1.47-3.507,2.914-6.572,4.329-9.189,1.417-2.62,2.811-4.797,4.18-6.525,1.373-1.74,2.735-3.046,4.082-3.917,1.364-0.883,2.715-1.323,4.05-1.323,1.12,0,2.125,0.262,3.019,0.784,0.89,0.521,1.666,1.3,2.331,2.338v0.001c0.656,1.032,1.147,2.247,1.475,3.644,0.325,1.391,0.488,2.964,0.488,4.719,0,3.901-0.462,7.451-1.382,10.648-0.921,3.202-2.305,6.053-4.146,8.55-1.694,2.298-3.604,4.07-5.729,5.315-2.112,1.238-4.435,1.956-6.966,2.149-0.143,0.124-0.308,0.226-0.487,0.296-0.19,0.076-0.4,0.119-0.618,0.121-1.128,0.01-2.245-0.208-3.354-0.583-1.02-0.33-2.05-0.82-3.07-1.39zm71.33,2.3c1.275-0.977,2.691-2.082,4.248-3.314l0.078-0.196,0.002-0.004,0.1-0.239c0.32-0.752,0.725-1.496,1.209-2.235,0.482-0.735,1.047-1.464,1.691-2.187l0.002-0.002c1.09-1.188,2.283-2.258,3.576-3.207,1.297-0.951,2.697-1.783,4.195-2.494,1.496-0.708,2.971-1.24,4.422-1.594,1.457-0.355,2.889-0.532,4.291-0.532,0.584,0,1.133,0.028,1.65,0.086s1.004,0.146,1.463,0.264c0.451,0.112,0.898,0.266,1.334,0.453,0.441,0.189,0.881,0.421,1.314,0.688l0.088,0.055-0.004,0.101-0.135,2.531-0.016,0.304-0.252-0.169c-0.449-0.301-0.898-0.562-1.342-0.779-0.443-0.218-0.887-0.396-1.326-0.531-0.445-0.135-0.904-0.238-1.379-0.309-0.473-0.069-0.959-0.104-1.463-0.104-1.203,0-2.438,0.156-3.697,0.468-1.266,0.313-2.563,0.78-3.891,1.402-1.324,0.622-2.527,1.33-3.605,2.123-1.078,0.79-2.029,1.664-2.854,2.619-0.529,0.61-0.998,1.237-1.402,1.878-0.404,0.637-0.748,1.292-1.027,1.96v0.002c-0.568,1.332-0.854,2.631-0.854,3.918,0,0.738,0.078,1.4,0.234,1.982,0.154,0.578,0.385,1.08,0.688,1.501,0.307,0.417,0.664,0.731,1.068,0.939,0.402,0.207,0.857,0.311,1.361,0.311,0.629,0,1.348-0.266,2.158-0.794,0.826-0.539,1.746-1.353,2.754-2.437,1.008-1.09,2.334-2.735,3.969-4.934,1.627-2.184,3.561-4.915,5.801-8.19l0.059-0.085,0.1,0.01,2.613,0.256,0.244,0.023-0.104,0.222-6.295,13.478c-0.061,0.147-0.115,0.302-0.164,0.446v0.002l-0.051,0.144h0.002c-0.031,0.094-0.055,0.175-0.07,0.24-0.014,0.059-0.021,0.102-0.021,0.127,0,0.062,0.01,0.12,0.025,0.173,0.016,0.053,0.041,0.104,0.074,0.148l0.002,0.002,0.008,0.012c0.023,0.043,0.053,0.075,0.08,0.094,0.02,0.013,0.039,0.02,0.061,0.02,0.139,0,0.496-0.175,1.068-0.522,0.596-0.364,1.406-0.912,2.434-1.643h-0.002c1.037-0.742,2.219-1.619,3.539-2.63,1.309-0.999,2.771-2.143,4.385-3.427l0.281-0.224v3.108l-0.05,0.04-0.813,0.621c-3.828,2.961-6.891,5.185-9.188,6.668-2.32,1.499-3.879,2.25-4.674,2.25-0.189,0-0.369-0.047-0.539-0.134-0.162-0.084-0.318-0.207-0.467-0.367l-0.002-0.002c-0.143-0.162-0.254-0.347-0.324-0.549-0.072-0.2-0.109-0.418-0.109-0.653,0-0.122,0.021-0.277,0.063-0.464,0.041-0.181,0.102-0.391,0.18-0.63,0.07-0.232,0.164-0.499,0.277-0.793v-0.001c0.111-0.292,0.238-0.597,0.373-0.912l0.002-0.002,1.41-3.171c-0.703,0.987-1.377,1.87-2.018,2.646-0.953,1.154-1.84,2.076-2.66,2.761-0.818,0.688-1.637,1.204-2.455,1.55-0.822,0.348-1.643,0.521-2.459,0.521-0.854,0-1.633-0.181-2.332-0.54h-0.002c-0.693-0.357-1.311-0.893-1.842-1.605-0.533-0.709-0.936-1.53-1.203-2.457-0.266-0.925-0.4-1.955-0.4-3.086,0-0.168,0.008-0.349,0.016-0.529l0.008-0.135-0.232,0.178v0.001c-3.576,2.776-6.451,4.862-8.625,6.257-2.201,1.411-3.695,2.117-4.48,2.117-0.215,0-0.41-0.053-0.59-0.156-0.174-0.1-0.328-0.248-0.465-0.439v-0.003c-0.129-0.189-0.227-0.406-0.293-0.647-0.063-0.234-0.094-0.497-0.094-0.781,0-0.132,0.018-0.285,0.055-0.461,0.033-0.17,0.084-0.358,0.152-0.565,0.061-0.201,0.141-0.43,0.236-0.678,0.096-0.254,0.203-0.511,0.316-0.772v-0.003l5.605-12.468v-0.001l0.111-0.241-0.002-0.001c0.156-0.342,0.352-0.769,0.615-1.314,0.291-0.616,0.51-1.107,0.654-1.475,0.139-0.348,0.207-0.571,0.207-0.672-0.012-0.199-0.221-0.377-0.621-0.527-0.457-0.172-1.143-0.295-2.055-0.365-0.477-0.034-0.9-0.067-1.27-0.1-0.32-0.028-0.613-0.058-0.875-0.088-0.652,1.29-1.363,2.521-2.137,3.694-0.793,1.203-1.65,2.343-2.568,3.415-0.77,0.907-1.6,1.782-2.482,2.618-0.896,0.851-1.847,1.661-2.837,2.424l-0.337,0.265c-2.174,1.705-4.066,3.153-5.676,4.342-1.631,1.206-2.965,2.142-3.998,2.808-1.063,0.682-1.978,1.194-2.741,1.536-0.779,0.349-1.41,0.523-1.889,0.523-0.214,0-0.41-0.052-0.589-0.155-0.173-0.101-0.329-0.248-0.464-0.439l-0.002-0.003c-0.129-0.19-0.227-0.407-0.291-0.648-0.063-0.234-0.095-0.496-0.095-0.78,0-0.134,0.018-0.29,0.053-0.469,0.034-0.169,0.085-0.366,0.153-0.589,0.063-0.221,0.143-0.452,0.237-0.69,0.092-0.235,0.201-0.481,0.319-0.734l5.562-11.897c-2.214,2.3-4.303,4.38-6.265,6.244-2.2,2.089-4.244,3.909-6.127,5.459-1.866,1.535-3.431,2.688-4.689,3.458-1.285,0.785-2.266,1.179-2.938,1.179-0.261,0-0.494-0.044-0.698-0.128-0.209-0.088-0.386-0.219-0.526-0.392-0.144-0.169-0.25-0.382-0.318-0.639-0.066-0.247-0.099-0.537-0.099-0.869,0-0.17,0.016-0.358,0.048-0.562,0.03-0.191,0.076-0.396,0.137-0.607,0.064-0.221,0.141-0.446,0.231-0.674,0.085-0.214,0.182-0.43,0.292-0.644v-0.001l3.555-7.019c-0.142,0.124-0.285,0.246-0.429,0.368-0.389,0.326-0.766,0.631-1.131,0.915v-0.001c-0.373,0.296-0.745,0.572-1.111,0.829-0.373,0.263-0.75,0.513-1.129,0.748l-0.263,0.162v-3.074l0.072-0.052c0.865-0.625,1.68-1.257,2.442-1.892,0.763-0.635,1.475-1.276,2.132-1.922,0.653-0.642,1.174-1.191,1.562-1.648,0.382-0.45,0.631-0.806,0.748-1.063l0.002-0.005,2.924-5.984,0.048-0.098h3.239l-0.118,0.248-8.261,17.327-0.074,0.194c-0.067,0.177-0.126,0.331-0.163,0.45-0.026,0.089-0.044,0.166-0.055,0.23-0.01,0.063-0.015,0.116-0.015,0.164,0,0.152,0.01,0.285,0.03,0.393,0.018,0.098,0.044,0.175,0.077,0.228l0.003,0.005c0.032,0.056,0.064,0.097,0.097,0.12v0.001c0.021,0.016,0.047,0.024,0.076,0.024,0.373,0,1.176-0.468,2.402-1.402,1.249-0.952,2.917-2.379,4.999-4.281,2.097-1.904,4.229-3.996,6.39-6.272,2.152-2.268,4.341-4.723,6.561-7.366l0.053-0.063h3.219l-0.114,0.246-8.538,18.469-0.044,0.103c-0.082,0.19-0.154,0.357-0.196,0.483v0.001c-0.024,0.074-0.042,0.138-0.053,0.189v0.002c-0.01,0.051-0.016,0.095-0.016,0.131,0,0.059,0.007,0.113,0.02,0.163l0.002,0.001c0.012,0.05,0.033,0.099,0.063,0.143v0.001c0.027,0.043,0.056,0.075,0.086,0.098,0.019,0.015,0.04,0.025,0.063,0.032,0.14-0.013,0.466-0.175,0.973-0.484,0.547-0.335,1.287-0.837,2.213-1.503l0.002-0.001c0.879-0.629,1.951-1.419,3.215-2.371,1.208-0.912,2.604-1.981,4.184-3.209l0.268-0.208h0.002l0.485-0.378c0.712-0.569,1.429-1.211,2.12-1.899,0.668-0.665,1.316-1.378,1.914-2.116,0.773-0.943,1.484-1.936,2.135-2.97,0.621-0.99,1.188-2.023,1.703-3.097-0.174-0.116-0.328-0.238-0.459-0.367-0.166-0.161-0.297-0.332-0.395-0.513-0.102-0.18-0.178-0.386-0.227-0.611-0.049-0.228-0.074-0.479-0.074-0.748,0-0.444,0.057-0.845,0.168-1.205,0.113-0.363,0.287-0.686,0.518-0.97,0.232-0.285,0.5-0.501,0.801-0.646,0.303-0.145,0.637-0.218,1-0.218,0.299,0,0.578,0.055,0.832,0.162,0.252,0.107,0.482,0.269,0.682,0.479,0.207,0.212,0.359,0.451,0.459,0.716,0.1,0.263,0.148,0.55,0.148,0.858,0,0.15-0.006,0.293-0.018,0.426-0.012,0.132-0.029,0.263-0.053,0.394v0.001c-0.023,0.117-0.049,0.242-0.08,0.373l-0.045,0.166c0.201-0.002,0.395-0.004,0.582-0.008,0.268-0.006,0.545-0.014,0.826-0.025l0.211-0.024h0.002c0.066-0.006,0.111-0.009,0.135-0.009,0.922,0,1.715,0.062,2.375,0.186,0.67,0.126,1.211,0.317,1.619,0.573,0.422,0.262,0.738,0.606,0.947,1.032,0.211,0.423,0.314,0.925,0.314,1.502,0,0.211-0.027,0.443-0.076,0.699-0.051,0.249-0.125,0.523-0.223,0.819v0.001c-0.102,0.301-0.271,0.732-0.504,1.291-0.225,0.545-0.518,1.217-0.871,2.011l-4.768,10.563-0.111,0.323c-0.037,0.106-0.072,0.215-0.105,0.318-0.031,0.104-0.057,0.191-0.072,0.258-0.014,0.054-0.02,0.092-0.02,0.112,0,0.063,0.006,0.121,0.02,0.174,0.014,0.051,0.035,0.1,0.063,0.145,0.029,0.043,0.057,0.076,0.088,0.099h-0.002c0.02,0.014,0.041,0.024,0.064,0.03,0.152-0.012,0.498-0.185,1.041-0.518,0.582-0.357,1.373-0.896,2.367-1.612,0.97-0.7,2.1-1.54,3.37-2.52z" fill="#F60"/>
<path d="M533.6,192.61l-0.207,0.167-0.002,0.002c-3.582,2.776-6.459,4.86-8.629,6.25-2.199,1.408-3.691,2.112-4.477,2.112-0.447,0-0.82-0.203-1.1-0.608h0.002c-0.141-0.2-0.244-0.424-0.311-0.671v-0.001c-0.066-0.245-0.1-0.516-0.1-0.813,0-0.161,0.016-0.338,0.049-0.528,0.029-0.179,0.076-0.371,0.139-0.576h-0.002c0.063-0.207,0.139-0.422,0.234-0.644,0.092-0.221,0.201-0.446,0.324-0.676l3.646-7.141c-1.748,1.538-3.602,2.949-5.471,4.372-2.064,1.57-4.148,3.156-6.115,4.932v0.001c-1.398,1.257-2.768,2.563-4.105,3.917-1.32,1.336-2.617,2.728-3.891,4.174-1.061,2.693-1.98,4.92-2.762,6.68-0.785,1.767-1.428,3.06-1.932,3.876-0.512,0.82-1.02,1.441-1.525,1.857-0.52,0.429-1.041,0.645-1.559,0.645-0.23,0-0.443-0.047-0.637-0.143-0.189-0.095-0.361-0.235-0.51-0.422l-0.004-0.005c-0.139-0.188-0.246-0.405-0.318-0.648-0.068-0.241-0.105-0.511-0.105-0.809,0-0.905,0.178-1.925,0.533-3.058,0.354-1.123,0.883-2.363,1.59-3.717h-0.002c0.703-1.353,1.518-2.665,2.445-3.938,0.918-1.262,1.949-2.482,3.09-3.663l4.838-10.825c-0.947,1.206-1.834,2.271-2.656,3.193-1.076,1.206-2.047,2.174-2.914,2.9v-0.01c-0.869,0.73-1.695,1.28-2.479,1.646-0.797,0.372-1.551,0.56-2.26,0.56-0.863,0-1.654-0.187-2.367-0.558-0.705-0.369-1.332-0.921-1.873-1.654-0.547-0.732-0.957-1.573-1.23-2.521-0.258-0.9-0.395-1.897-0.406-2.991-3.34,2.577-6.029,4.515-8.074,5.818-2.139,1.362-3.59,2.039-4.363,2.039-0.213,0-0.41-0.053-0.588-0.155-0.174-0.1-0.33-0.248-0.465-0.439l-0.002-0.003c-0.129-0.19-0.227-0.406-0.291-0.647-0.063-0.235-0.096-0.497-0.096-0.782,0-0.132,0.02-0.284,0.055-0.461,0.035-0.168,0.086-0.357,0.152-0.565,0.061-0.201,0.141-0.429,0.236-0.678,0.098-0.253,0.203-0.51,0.316-0.772l0.002-0.003,5.604-12.467v-0.002l0.111-0.241c0.154-0.342,0.35-0.769,0.613-1.314,0.291-0.617,0.512-1.108,0.656-1.475,0.137-0.348,0.205-0.571,0.205-0.672-0.012-0.2-0.219-0.378-0.621-0.528-0.455-0.171-1.143-0.295-2.055-0.365-0.475-0.033-0.9-0.067-1.268-0.1-0.32-0.027-0.613-0.058-0.877-0.087-0.65,1.289-1.363,2.521-2.137,3.693-0.793,1.203-1.648,2.343-2.568,3.416-0.773,0.914-1.625,1.811-2.525,2.667-0.906,0.86-1.863,1.681-2.848,2.44-2.434,1.939-4.539,3.539-6.313,4.802-1.799,1.28-3.258,2.214-4.369,2.798-1.107,0.578-2.178,1.015-3.205,1.305-1.029,0.29-2.021,0.437-2.969,0.437-1.104,0-2.088-0.165-2.947-0.496-0.861-0.331-1.6-0.829-2.205-1.491h-0.002c-0.611-0.662-1.068-1.467-1.373-2.411-0.301-0.938-0.451-2.013-0.451-3.224v-0.024c-3.34,2.567-6.039,4.506-8.09,5.811-2.129,1.356-3.578,2.036-4.348,2.036-0.424,0-0.795-0.202-1.086-0.605-0.145-0.199-0.252-0.424-0.32-0.674-0.068-0.246-0.102-0.518-0.102-0.814,0-0.134,0.018-0.284,0.055-0.457,0.037-0.166,0.092-0.354,0.166-0.565,0.068-0.206,0.158-0.424,0.26-0.655,0.105-0.235,0.223-0.48,0.348-0.738v-0.001l6.518-13.688v-0.001c0.191-0.386,0.336-0.685,0.443-0.907l0.232-0.486c0.041-0.094,0.074-0.172,0.094-0.234,0.016-0.052,0.025-0.09,0.025-0.117,0-0.176-0.018-0.298-0.053-0.374-0.008-0.02-0.018-0.033-0.025-0.04l-0.006-0.001c-0.111,0-0.359,0.119-0.742,0.356-0.406,0.251-0.947,0.632-1.623,1.141-0.678,0.505-1.398,1.08-2.16,1.722-0.758,0.638-1.568,1.351-2.43,2.131l-0.004,0.003c-1.053,0.919-2.076,1.845-3.064,2.776-0.992,0.932-1.949,1.869-2.875,2.81-0.924,0.939-1.799,1.86-2.621,2.76-0.82,0.898-1.586,1.773-2.295,2.625l-0.393,0.475v0.001l-0.52,0.634c-0.701,0.897-1.352,1.572-1.943,2.024-0.613,0.468-1.176,0.703-1.682,0.703-0.232,0-0.441-0.044-0.627-0.133s-0.35-0.223-0.488-0.399l-0.002-0.003c-0.129-0.173-0.229-0.377-0.295-0.608-0.063-0.224-0.096-0.476-0.096-0.75,0-0.342,0.254-1.047,0.76-2.115,0.496-1.047,1.24-2.462,2.232-4.241,0.455-0.818,0.863-1.556,1.223-2.212l0.514-0.945c-0.146,0.13-0.293,0.257-0.438,0.38-0.406,0.347-0.801,0.666-1.176,0.956-1.551,1.199-3.582,2.642-5.625,3.984-1.848,1.214-3.703,2.346-5.221,3.144h-0.002c-1.965,1.031-3.957,1.741-5.916,2.204-2.248,0.531-4.455,0.739-6.529,0.739-1.268,0-2.402-0.167-3.408-0.501-1.008-0.334-1.883-0.838-2.623-1.509-0.742-0.673-1.299-1.475-1.672-2.401-0.369-0.924-0.555-1.974-0.555-3.145,0-1.148,0.232-2.277,0.695-3.385,0.463-1.104,1.152-2.187,2.072-3.244,0.914-1.06,2.08-2.121,3.494-3.185,1.365-1.026,2.967-2.057,4.803-3.087-0.414-0.585-0.787-1.188-1.111-1.807-0.352-0.672-0.65-1.362-0.891-2.067-0.242-0.708-0.422-1.428-0.543-2.161-0.119-0.733-0.18-1.479-0.18-2.235,0-1.046,0.139-2.114,0.414-3.21,0.273-1.091,0.684-2.21,1.227-3.358l0.002-0.001c0.549-1.142,1.199-2.231,1.949-3.265,0.752-1.034,1.604-2.017,2.557-2.946,0.93-0.929,1.928-1.762,2.988-2.492,1.057-0.73,2.18-1.361,3.365-1.893,1.189-0.538,2.363-0.941,3.52-1.211,1.16-0.269,2.305-0.403,3.436-0.403,0.928,0,1.773,0.113,2.529,0.338,0.764,0.227,1.439,0.567,2.023,1.019,0.596,0.455,1.041,0.981,1.336,1.575,0.297,0.597,0.445,1.262,0.445,1.993,0,0.795-0.625,2.132-1.871,4.009-1.23,1.854-3.076,4.253-5.531,7.192-1.057,1.259-1.832,2.189-2.428,2.904v0.001l-0.375,0.447-0.125,0.15-0.133-0.144-1.725-1.854-0.102-0.11,0.094-0.116c0.389-0.482,0.789-0.977,1.252-1.545,0.555-0.685,1.197-1.475,1.807-2.229v-0.001c2.002-2.453,3.506-4.437,4.508-5.943,0.986-1.484,1.48-2.491,1.48-3.018,0-0.256-0.076-0.487-0.225-0.692-0.154-0.214-0.393-0.405-0.707-0.576-0.328-0.169-0.711-0.297-1.146-0.382-0.441-0.087-0.941-0.13-1.496-0.13-0.68,0-1.408,0.106-2.184,0.317-0.783,0.212-1.617,0.531-2.502,0.953v-0.001c-0.879,0.423-1.748,0.927-2.604,1.512-0.855,0.583-1.697,1.248-2.527,1.992l-0.002,0.001c-0.99,0.869-1.869,1.771-2.633,2.704-0.762,0.932-1.41,1.895-1.943,2.888-0.531,0.985-0.93,1.961-1.193,2.922-0.266,0.965-0.396,1.919-0.396,2.858,0,0.665,0.068,1.34,0.205,2.022,0.137,0.686,0.344,1.379,0.615,2.077v0.001c0.277,0.713,0.643,1.487,1.094,2.317,0.445,0.819,0.98,1.699,1.604,2.634l0.104,0.156-0.166,0.091c-2.031,1.112-3.779,2.17-5.236,3.175-1.453,1.001-2.615,1.949-3.484,2.845-0.865,0.886-1.514,1.776-1.945,2.669-0.428,0.886-0.641,1.776-0.641,2.673,0,0.733,0.115,1.391,0.346,1.967,0.229,0.573,0.574,1.071,1.031,1.492,0.461,0.422,1.012,0.741,1.65,0.954,0.643,0.213,1.377,0.32,2.203,0.32,1.561,0,3.275-0.073,5.031-0.382,1.752-0.308,3.547-0.851,5.273-1.787,1.818-0.988,3.738-2.113,5.662-3.344,1.762-1.126,3.531-2.343,5.236-3.627l0.002-0.001c0.857-0.624,1.465-1.091,2.02-1.561,0.555-0.473,1.059-0.949,1.709-1.593v-0.001c0.645-0.638,1.168-1.192,1.566-1.663,0.391-0.463,0.658-0.84,0.803-1.132l2.936-5.984,0.047-0.097h3.249l-0.117,0.247-7.561,15.888c2.877-2.832,5.432-5.283,7.658-7.35,2.42-2.245,4.459-4.041,6.109-5.382,1.648-1.344,3.051-2.354,4.205-3.028,1.176-0.686,2.105-1.029,2.787-1.029,0.191,0,0.365,0.043,0.516,0.128,0.152,0.084,0.281,0.21,0.387,0.373l0.004,0.008c0.092,0.161,0.164,0.356,0.211,0.584,0.045,0.218,0.068,0.467,0.068,0.745,0,0.146-0.016,0.304-0.045,0.472-0.029,0.163-0.072,0.338-0.131,0.522-0.051,0.176-0.133,0.406-0.242,0.686-0.111,0.282-0.248,0.612-0.408,0.985l-0.002,0.005-6.881,14.894-0.139,0.326c-0.076,0.177-0.137,0.315-0.168,0.402l-0.021,0.072v0.001c-0.027,0.098-0.047,0.166-0.047,0.197,0,0.069,0.008,0.134,0.021,0.188,0.016,0.056,0.037,0.103,0.061,0.138,0.023,0.036,0.053,0.064,0.082,0.087l0.002-0.001c0.021,0.017,0.045,0.029,0.068,0.036,0.166-0.013,0.525-0.187,1.078-0.522,0.592-0.358,1.4-0.906,2.428-1.643,0.854-0.608,1.811-1.318,2.863-2.118,1.064-0.809,2.258-1.733,3.559-2.76,0.104-0.354,0.227-0.718,0.363-1.076,0.143-0.376,0.303-0.752,0.477-1.117v-0.001c0.443-0.928,0.99-1.843,1.646-2.74,0.652-0.896,1.412-1.775,2.279-2.636,0.951-0.943,1.908-1.781,2.871-2.516,0.975-0.745,1.957-1.386,2.941-1.922,0.982-0.532,1.92-0.931,2.811-1.195,0.9-0.269,1.756-0.402,2.564-0.402,0.689,0,1.307,0.083,1.848,0.247v0.001c0.549,0.167,1.021,0.417,1.412,0.748v0.001c0.393,0.34,0.691,0.748,0.889,1.222,0.195,0.47,0.295,1.003,0.295,1.596,0,1.529-0.391,2.974-1.174,4.335-0.779,1.355-1.945,2.628-3.498,3.817-1.555,1.188-3.27,2.081-5.143,2.676-1.869,0.594-3.898,0.891-6.082,0.891-0.479,0-0.834,0-1.076-0.011-0.123-0.006-0.234-0.015-0.34-0.023l-0.002-0.002-0.189-0.018c-0.035,0.126-0.066,0.25-0.094,0.369-0.035,0.152-0.064,0.302-0.086,0.447-0.021,0.145-0.037,0.296-0.049,0.447v0.001c-0.01,0.155-0.016,0.313-0.016,0.47,0,0.787,0.09,1.478,0.27,2.068,0.178,0.581,0.443,1.068,0.797,1.458l0.002,0.001c0.346,0.389,0.779,0.682,1.297,0.876,0.523,0.198,1.135,0.298,1.832,0.298,0.799,0,1.65-0.137,2.557-0.411v-0.001c0.91-0.275,1.877-0.689,2.898-1.243h0.002c0.971-0.524,2.34-1.435,4.059-2.683,1.729-1.255,3.805-2.848,6.186-4.732l0.006-0.005c0.838-0.618,1.648-1.303,2.422-2.051,0.775-0.748,1.521-1.563,2.232-2.442v-0.001c0.775-0.943,1.484-1.935,2.135-2.969,0.621-0.99,1.189-2.024,1.703-3.098-0.174-0.116-0.328-0.238-0.459-0.367-0.164-0.161-0.297-0.332-0.395-0.512-0.102-0.181-0.176-0.386-0.225-0.612-0.051-0.228-0.074-0.479-0.074-0.748,0-0.443,0.055-0.845,0.168-1.205,0.113-0.363,0.285-0.687,0.516-0.969,0.232-0.286,0.5-0.501,0.803-0.646,0.301-0.145,0.635-0.217,1-0.217,0.299,0,0.578,0.055,0.83,0.161,0.254,0.107,0.482,0.269,0.682,0.48l0.002-0.001c0.205,0.212,0.357,0.452,0.457,0.716,0.1,0.263,0.148,0.551,0.148,0.858,0,0.298-0.023,0.563-0.07,0.819v0.002c-0.021,0.114-0.047,0.237-0.08,0.372l-0.043,0.166c0.199-0.001,0.393-0.004,0.58-0.008,0.268-0.005,0.545-0.014,0.828-0.024l0.209-0.024h0.002c0.066-0.006,0.111-0.01,0.135-0.01,0.922,0,1.715,0.063,2.377,0.187,0.67,0.126,1.209,0.317,1.617,0.573v-0.001c0.422,0.262,0.738,0.606,0.949,1.032,0.209,0.424,0.313,0.926,0.313,1.502,0,0.212-0.025,0.445-0.076,0.699-0.051,0.252-0.125,0.525-0.221,0.82l-0.002,0.001c-0.102,0.3-0.27,0.732-0.502,1.291-0.227,0.544-0.518,1.216-0.871,2.01v0.001l-4.77,10.564-0.111,0.321-0.105,0.317c-0.033,0.113-0.059,0.201-0.072,0.258-0.012,0.057-0.02,0.096-0.02,0.114,0,0.063,0.006,0.121,0.02,0.173,0.014,0.051,0.035,0.1,0.064,0.145,0.027,0.044,0.055,0.076,0.086,0.099,0.018,0.015,0.039,0.025,0.063,0.031,0.332-0.023,1.471-0.733,3.408-2.131,0.844-0.607,1.799-1.318,2.875-2.138,1.059-0.807,2.234-1.719,3.535-2.741,0.086-0.298,0.189-0.608,0.303-0.915,0.109-0.297,0.234-0.593,0.371-0.878,0.369-0.789,0.84-1.568,1.408-2.335,0.572-0.771,1.242-1.531,2.008-2.278,1.131-1.1,2.334-2.09,3.611-2.967,1.275-0.876,2.627-1.642,4.055-2.295,1.43-0.654,2.805-1.146,4.125-1.476,1.326-0.328,2.602-0.495,3.82-0.495,0.715,0,1.391,0.06,2.025,0.177,0.637,0.117,1.232,0.294,1.789,0.525,0.553,0.233,1.074,0.529,1.563,0.887,0.486,0.358,0.943,0.781,1.369,1.269l0.09,0.103-0.078,0.11-1.4,1.987-0.125,0.175-0.145-0.157c-0.398-0.438-0.799-0.814-1.201-1.132-0.398-0.315-0.805-0.573-1.215-0.772-0.404-0.193-0.838-0.34-1.305-0.436-0.465-0.097-0.965-0.146-1.5-0.146-0.813,0-1.709,0.121-2.686,0.364-0.973,0.243-2.029,0.609-3.162,1.098-1.141,0.491-2.232,1.058-3.273,1.695-1.043,0.639-2.039,1.354-2.99,2.143-0.838,0.687-1.576,1.4-2.211,2.136-0.625,0.726-1.146,1.475-1.563,2.242-0.414,0.774-0.727,1.569-0.934,2.384-0.209,0.813-0.313,1.646-0.313,2.497,0,0.771,0.07,1.446,0.211,2.025,0.139,0.571,0.348,1.051,0.625,1.438v0.002c0.266,0.38,0.596,0.668,0.984,0.858,0.391,0.191,0.846,0.288,1.365,0.288,1.164,0,2.926-1.183,5.281-3.546,1.197-1.2,2.58-2.743,4.145-4.629,1.547-1.866,3.27-4.062,5.16-6.588l0.057-0.076,0.094,0.007,2.734,0.2,0.248,0.018-0.104,0.227-7.201,15.676c0.828-0.705,1.672-1.414,2.527-2.125,1.059-0.879,2.162-1.778,3.309-2.699l1.449-1.182c1.682-1.374,3.469-2.833,5.367-4.289v-0.001c0.75-0.562,1.459-1.13,2.125-1.701s1.291-1.146,1.877-1.72c0.645-0.639,1.168-1.193,1.566-1.664,0.393-0.461,0.664-0.839,0.813-1.133l2.924-5.982,0.049-0.097h3.249l-0.117,0.247-8.73,18.507c-0.096,0.201-0.178,0.399-0.248,0.571l-0.025,0.062c-0.033,0.086-0.059,0.162-0.076,0.228-0.016,0.06-0.021,0.104-0.021,0.132,0,0.138,0.033,0.25,0.1,0.342,0.031,0.045,0.061,0.076,0.086,0.094l0.002,0.002c0.01,0.007,0.02,0.011,0.027,0.011,0.154,0,0.521-0.177,1.102-0.528,0.594-0.361,1.4-0.907,2.412-1.637v-0.001c0.994-0.711,2.117-1.546,3.369-2.503,1.242-0.951,2.631-2.034,4.16-3.25,0.039-0.103,0.082-0.196,0.125-0.29l0.084-0.191c0.318-0.752,0.723-1.496,1.205-2.232,0.484-0.737,1.051-1.466,1.693-2.188l0.002-0.001c1.09-1.189,2.283-2.259,3.576-3.207,1.297-0.952,2.697-1.784,4.195-2.495,1.496-0.708,2.971-1.239,4.422-1.593,1.457-0.355,2.889-0.533,4.293-0.533,0.582,0,1.131,0.028,1.648,0.086s1.006,0.146,1.463,0.265c0.453,0.112,0.898,0.265,1.336,0.452,0.441,0.19,0.879,0.421,1.314,0.689l0.086,0.054-0.004,0.102-0.135,2.53-0.016,0.304-0.252-0.168c-0.449-0.301-0.896-0.562-1.342-0.779-0.443-0.219-0.885-0.396-1.326-0.531v-0.001c-0.443-0.134-0.904-0.237-1.379-0.308-0.471-0.07-0.959-0.105-1.461-0.105-1.205,0-2.438,0.157-3.699,0.468-1.266,0.313-2.563,0.78-3.891,1.402-1.324,0.622-2.527,1.331-3.605,2.123-1.076,0.79-2.029,1.665-2.854,2.619-0.529,0.61-0.998,1.238-1.402,1.878-0.404,0.638-0.746,1.292-1.027,1.961v0.001c-0.285,0.667-0.498,1.326-0.641,1.979-0.143,0.65-0.213,1.298-0.213,1.939,0,0.738,0.078,1.4,0.234,1.982v0.001c0.154,0.578,0.385,1.079,0.688,1.501l0.002-0.001c0.307,0.418,0.664,0.731,1.066,0.939,0.402,0.207,0.857,0.312,1.363,0.312,0.627,0,1.348-0.267,2.156-0.795,0.826-0.539,1.746-1.353,2.754-2.436,1.01-1.09,2.334-2.735,3.971-4.934,1.625-2.184,3.561-4.915,5.799-8.191l0.059-0.084,0.102,0.01,2.613,0.255,0.242,0.024-0.104,0.221-6.293,13.479c-0.063,0.146-0.115,0.302-0.166,0.446v0.001l-0.049,0.144c-0.031,0.094-0.055,0.176-0.07,0.241-0.014,0.058-0.021,0.101-0.021,0.127,0,0.118,0.033,0.229,0.1,0.319l0.002,0.002,0.008,0.013c0.025,0.043,0.053,0.075,0.08,0.094v0.001c0.018,0.013,0.039,0.02,0.061,0.02,0.209,0,1.139-0.126,2.219-0.687,0.619-0.321,1.285-0.787,1.883-1.453,0.418-0.466,0.805-0.89,1.164-1.274,0.354-0.379,0.688-0.729,1-1.048,0.039-0.082,0.086-0.16,0.139-0.232,0.057-0.08,0.123-0.156,0.195-0.228,5.086-5.003,9.268-6.191,12.869-5.572,3.594,0.617,6.588,3.033,9.334,5.25,2.432,1.962,4.619,3.728,6.422,3.217,2.291-0.649,4.885-4.281,7.375-7.766,0.84-1.175,1.67-2.337,2.502-3.402,0.834-1.064,1.664-2.028,2.5-2.801,0.348-0.319,0.791-0.468,1.229-0.45,0.436,0.019,0.867,0.203,1.188,0.551,0.318,0.347,0.467,0.791,0.451,1.229-0.02,0.437-0.205,0.867-0.551,1.188-0.705,0.651-1.443,1.516-2.203,2.491-0.768,0.989-1.545,2.077-2.33,3.177-1.412,1.975-2.854,3.992-4.371,5.64-1.529,1.661-3.135,2.947-4.865,3.437-3.494,0.991-6.332-1.3-9.486-3.845-2.225-1.797-4.652-3.755-7.506-4.267-2.846-0.511-6.146,0.413-10.162,4.361-0.08,0.079-0.168,0.149-0.258,0.209-0.084,0.055-0.172,0.104-0.26,0.141l-0.078,0.077c-3.25,3.238-5.77,4.879-7.641,5.678-1.896,0.81-3.146,0.762-3.826,0.632-0.168-0.032-0.334-0.075-0.498-0.149-0.164-0.076-0.324-0.185-0.475-0.348l-0.004-0.003c-0.143-0.161-0.252-0.346-0.324-0.548v-0.001c-0.07-0.199-0.107-0.418-0.107-0.653,0-0.121,0.021-0.277,0.063-0.463v-0.001c0.041-0.18,0.1-0.39,0.178-0.63,0.07-0.232,0.164-0.499,0.277-0.792v-0.001c0.113-0.293,0.238-0.598,0.375-0.913v-0.002l1.412-3.171c-0.705,0.987-1.377,1.87-2.02,2.646-0.953,1.155-1.838,2.076-2.66,2.761-0.82,0.688-1.639,1.205-2.453,1.55-0.822,0.348-1.645,0.521-2.461,0.521-0.852,0-1.631-0.18-2.332-0.54-0.695-0.356-1.311-0.892-1.842-1.604h-0.002c-0.537-0.713-0.945-1.54-1.215-2.476-0.264-0.919-0.395-1.944-0.387-3.068v-0.001c0-0.177,0.006-0.353,0.014-0.522l-0.02-0.19zm-84.22-3.5c0.355,0.045,0.699,0.078,1.043,0.101,0.346,0.022,0.713,0.033,1.08,0.033,3.014,0,5.793-0.999,8.328-3.009,2.547-2.01,3.814-3.975,3.814-5.906,0-0.521-0.178-0.933-0.533-1.232-0.367-0.3-0.846-0.455-1.457-0.455-1.734,0-3.824,0.999-6.26,2.987-2.44,2-4.44,4.49-6.01,7.48zm-5.25-10.24zl-0.002,0.002zm88.45-6.42c-0.258,0-0.492-0.04-0.699-0.117h-0.002c-0.211-0.079-0.393-0.199-0.545-0.355-0.156-0.155-0.271-0.339-0.348-0.547-0.076-0.207-0.115-0.437-0.115-0.686,0-0.473,0.076-0.934,0.227-1.381,0.15-0.445,0.375-0.877,0.674-1.295,0.303-0.424,0.625-0.745,0.969-0.962,0.35-0.221,0.721-0.333,1.107-0.333,0.248,0,0.475,0.041,0.682,0.123s0.393,0.207,0.555,0.375c0.154,0.161,0.273,0.349,0.352,0.561,0.078,0.21,0.119,0.444,0.119,0.702,0,0.526-0.07,1.019-0.209,1.475s-0.348,0.877-0.625,1.258c-0.281,0.393-0.602,0.688-0.957,0.885-0.38,0.21-0.78,0.31-1.2,0.31z" fill="#F60"/>
</svg>
