<?xml version="1.0" encoding="UTF-8"?>
<svg id="Camada_1" data-name="Camada 1" xmlns="http://www.w3.org/2000/svg" viewBox="0 0 668.94 103.89">
  <defs>
    <style>
      .cls-1 {
        fill: #ec681d;
        fill-rule: evenodd;
      }
    </style>
  </defs>
  <path class="cls-1" d="M293.5,27.79c1.18.41,1.82,1.71,1.41,2.89-4.5,13.16-8.28,26.57-12.89,39.69-.73,2.08-2.01,4.44-3.76,5.84-3.24,2.59-12.87,2.59-16.11,0-1.75-1.39-3.03-3.76-3.76-5.84-4.6-13.09-8.08-26.56-12.57-39.69-.41-1.19.23-2.49,1.41-2.89l4.66-1.6c1.19-.41,2.49.23,2.89,1.41,4.41,12.87,7.79,26.1,12.3,38.93.97,2.76,5.29,2.76,6.26,0,4.52-12.87,8.2-26.03,12.62-38.93.41-1.19,1.71-1.82,2.89-1.41l4.66,1.6Z"/>
  <path class="cls-1" d="M664.19,32.37c.26.28.49.6.72.92,4.18,5.92,4.04,13.55,4.04,20.48,0,1.97-.91,3.23-2.99,3.23h-22.84c-.16,0-.31,0-.47-.03h-1.68c-2.08.07-3.13-1.35-1.7-3.1l2.94-3.59c.6-.73,1.47-1.18,2.4-1.28.06-.01.12-.02.19-.02h.06c.06,0,.11,0,.17,0,.59,0,1.18,0,1.76,0,.08,0,.18,0,.28,0h12.5c-.06-1.95-.3-4.2-.61-6.01-.44-2.55-1.26-5.49-3.42-7.11-.75-.56-1.41-.89-2.29-1.22-3.22-1.21-10.06-1.1-13.23.23-5.84,2.44-5.64,12.5-5.64,17.81l.12,3.36c.03.52-.03,1.04,0,1.56.21,3.93.86,8.18,4.39,10.54,3.75,2.51,8.5,2.24,12.81,2.24.48,0,.93-.1,1.41-.12,1.8-.08,3.62-.49,5.38-.86.83-.17,1.64-.43,2.46-.64,3.14-.79,3.94-1.67,5.01,2.1.19.67.73,2.21.66,2.83-.15,1.3-1.32,1.76-2.38,2.14-5.4,1.94-10.8,2.34-16.49,2.34h-.28c-6.06,0-13.3-1.7-17.36-6.53-1.94-2.31-3.18-5.12-3.9-8.03-1.06-4.24-1.19-8.01-1.19-12.36,0-15.98,4.62-25.11,22.09-25.11,5.07,0,10.52.84,14.69,3.95,1.03.77,1.55,1.39,2.41,2.3h0Z"/>
  <path class="cls-1" d="M609.44,28.4c-.1,12.45,0,24.9,0,37.34,0,2.14-.42,4.72-1.57,6.56-5.2,8.31-37.63,8.31-42.83,0-1.15-1.84-1.57-4.42-1.57-6.56,0-12.47-.05-24.94.05-37.4,0-1.23,1.02-2.23,2.25-2.22l4.78.03c1.23,0,2.23,1.02,2.22,2.25-.1,12.21-.06,24.41-.06,36.62,0,4.58,10.51,5.18,13.8,5.14,3-.03,13.68-.56,13.68-5.14,0-12.23-.11-24.45,0-36.68,0-1.23,1.02-2.23,2.25-2.22l4.78.03c1.23,0,2.23,1.02,2.22,2.25h0Z"/>
  <path class="cls-1" d="M346.93,52.09c0-4.24-.18-10.43-2.67-14.05-2.46-3.56-6.86-4.18-10.89-4.18h-.35c-5.6-.02-9.51,1.33-11.6,6.95-1.21,3.24-1.43,7.9-1.43,11.37,0,4.24.18,10.43,2.67,14.05,2.46,3.56,6.86,4.18,10.89,4.18h.34c5.61.02,9.51-1.33,11.61-6.95,1.21-3.24,1.43-7.9,1.43-11.37ZM356.33,52.08c0,4.86-.4,11.18-2.34,15.64-3.78,8.68-11.14,10.46-19.87,10.43-.04,0-.07,0-.11,0h-.41c-18.78,0-23-8.45-23-25.96,0-4.86.39-11.18,2.34-15.64,3.78-8.67,11.14-10.46,19.87-10.43h.52c18.78,0,23,8.45,23,25.96h0Z"/>
  <path class="cls-1" d="M422.61,26.56c1.4.16,2.78.37,4.16.65.84.17,2.5.52,3.15,1.01.4.3.89.94.89,1.45,0,.97-.34,2.09-.53,3.05-.28,1.42-.53,3.19-2.39,3.09-.68-.04-1.49-.28-2.16-.44-1.22-.29-2.44-.53-3.68-.71-3.31-.47-6.57-.89-9.92-1.03-.05,0-.1,0-.16,0-1.3-.03-2.61-.01-3.91-.01-5.01.22-11.2,2.08-9.52,8.36,1.36,4.1,5.69,4.62,9.45,4.78,4.61.21,10.19-.31,14.54,1.3,9.59,2.62,10.75,13.59,7.66,21.62-4.73,11.04-23.27,9.27-32.91,8.19-1.4-.16-2.78-.37-4.16-.65-.84-.17-2.5-.53-3.15-1.01-.4-.3-.89-.94-.89-1.45,0-.97.34-2.09.53-3.05.29-1.42.53-3.19,2.39-3.09.68.04,1.49.28,2.16.44,1.22.29,2.44.53,3.68.71,5.73.82,12.15,1.57,17.89.65,5.5-1.18,7.77-5.47,6.51-10.81-1.54-4.62-5.68-4.66-9.83-4.66-4.68,0-9.74.23-14.21-1.44-8.16-3.3-9.5-10.63-7.51-18.34,3.83-11.07,22.87-9.64,31.92-8.63h0Z"/>
  <path class="cls-1" d="M220.73,52.09c0-4.24-.18-10.43-2.67-14.05-2.46-3.56-6.86-4.18-10.89-4.18h-.35c-5.6-.02-9.51,1.33-11.6,6.95-1.21,3.24-1.43,7.9-1.43,11.37,0,4.24.18,10.43,2.67,14.05,2.46,3.56,6.86,4.18,10.89,4.18h.34c5.61.02,9.51-1.33,11.61-6.95,1.21-3.24,1.43-7.9,1.43-11.37h0ZM230.13,52.08c0,4.86-.39,11.18-2.34,15.64-3.78,8.68-11.14,10.46-19.87,10.43-.04,0-.07,0-.11,0h-.41c-18.78,0-23-8.45-23-25.96,0-4.86.39-11.18,2.34-15.64,3.78-8.67,11.14-10.46,19.87-10.43h.52c18.78,0,23,8.45,23,25.96h0Z"/>
  <path class="cls-1" d="M168.83,75.5c.09,2.34-1.45,3.53-3.43,1.9l-4.35-3.56c-.91-.77-1.44-1.84-1.51-3.26l.05-31.34c0-6.85-27.48-6.96-27.48,0,0,12.21-.04,24.41.06,36.62,0,1.23-.99,2.24-2.22,2.25l-4.78.03c-1.23,0-2.24-.99-2.25-2.22-.1-12.47-.05-24.93-.05-37.4,0-2.14.42-4.72,1.57-6.56,5.2-8.31,37.63-8.31,42.83,0,1.15,1.84,1.57,4.42,1.57,6.56v36.98Z"/>
  <path class="cls-1" d="M547.89,96.39v4.44c.08,2.31-1.43,3.48-3.39,1.88-1.42-1.16-2.84-2.32-4.26-3.48-.85-.79-1.53-1.71-1.49-3.2l.02-60.74c-3.49-.82-6.15-1.5-9.95-1.5-5.16,0-9.6-.17-12.37,4.6-2.94,5.06-2.88,19.22-.99,25.11,2.44,7.62,9.65,7.31,16.32,6.75,1.13-.1,3.24-.63,4.05.34.72.86.45,3.7.45,4.81,0,1.34-.96,1.86-2.1,2.1-7.34,1.49-19.4.94-24.48-5.36-4.93-6.13-5.04-15.16-4.9-22.73.11-6.08.95-12.21,4.66-17.12,6-7.94,22.71-6.79,31.32-4.57,4.79,1.23,7.1,2.59,7.1,7.68v60.9s0,.06,0,.1h0Z"/>
  <path class="cls-1" d="M489.24,71.14v4.44c.08,2.31-1.43,3.48-3.39,1.88-1.42-1.16-2.84-2.32-4.26-3.48-.85-.79-1.53-1.71-1.49-3.2l.02-35.46c-3.49-.82-6.15-1.5-9.95-1.5-5.16,0-9.6-.17-12.37,4.6-2.94,5.06-2.88,19.22-.99,25.11,2.44,7.62,9.65,7.31,16.32,6.75,1.13-.1,3.24-.63,4.05.34.72.86.45,3.7.45,4.81,0,1.34-.96,1.86-2.1,2.1-7.34,1.49-19.4.94-24.48-5.36-4.93-6.13-5.04-15.16-4.9-22.73.11-6.08.95-12.21,4.66-17.12,6-7.94,22.71-6.79,31.32-4.57,4.79,1.23,7.1,2.6,7.1,7.68v35.62s0,.06,0,.1h0Z"/>
  <path class="cls-1" d="M86.63,101.44c-.04,3.14-2.53,2.62-3.78,1.88-82.47-47.61-10.36-5.98-54.35-31.37v-20.22l42.77,24.69c0-20.89-.06-41.78-.06-62.67,0-2.01.86-3.98,2.42-5.26l9.03-7.39c2.83-2.3,4.08-.75,3.96,2.42v97.93h0ZM14.7,6.87l14.76,8.52,28.67,16.55v20.22c-14.26-8.23-28.51-16.46-42.77-24.69v49.71c.06.43.07.91.05,1.44v9.66h0v1.86c0,.12,0,.24,0,.36v.21h-.01c-.15,1.85-1.01,3.55-2.4,4.69l-9.03,7.39c-.58.47-1.09.78-1.53.95-.16.06-.28.09-.44.13-1.36.24-2-1.05-1.99-3.15,0-.04,0-.08,0-.13V2.44C.04-.7,2.53-.18,3.78.56l10.92,6.3Z"/>
</svg>