<svg xmlns="http://www.w3.org/2000/svg" viewBox="0 0 1263.16 565.08"><defs><style>.cls-1{fill:#f15a22;}</style></defs><g id="Camada_2" data-name="Camada 2"><g id="Layer_1" data-name="Layer 1"><path class="cls-1" d="M406.28,142.62,292,245.12l-80.62,66a75.39,75.39,0,0,1-50.34,19.07c-41.33,0-74.82-32.8-74.82-73.26s33.49-73.26,74.82-73.26c31.91,0,59.13,19.56,69.88,47.1l62.91-56.43a158.41,158.41,0,0,0-85.62-68.18v0a163.76,163.76,0,0,0-47.17-6.9c-89,0-161,70.6-161,157.69S72.1,414.61,161.05,414.61a163.33,163.33,0,0,0,60.89-11.68V565.08h81.37V345.58l103-84.81Z"/><path class="cls-1" d="M1263.16,280.3c0-100.8-96.18-179.12-201.77-148.2A149.71,149.71,0,0,0,959.93,233.56c-30.92,105.58,47.41,201.77,148.2,201.77a154.26,154.26,0,0,0,86.08-26.1v25.31h68.29V294.21C1262.91,289.62,1263.16,285,1263.16,280.3ZM1141.62,356c-70.78,28.19-137.43-38.45-109.24-109.23a75.71,75.71,0,0,1,42.26-42.26c70.78-28.19,137.42,38.46,109.23,109.23A75.69,75.69,0,0,1,1141.62,356Z"/><path class="cls-1" d="M737,277.41c-12.87-14.15-31.23-25.52-57.79-35.77-36.23-14-38.94-21.54-38.94-31.39,0-13.83,14.9-18.75,28.85-18.75A83.4,83.4,0,0,1,709,201.42l21.4,11.68,7.81-23.1,9.32-27.57,5.42-16-14.72-8.35c-17.62-10-41.76-15.48-68-15.48A128.86,128.86,0,0,0,629.05,129a100.46,100.46,0,0,0-33.5,18.72,86.07,86.07,0,0,0-30.42,66.39c0,23.22,8.24,43.29,24.49,59.67,13.49,13.61,32.47,24.64,58,33.73,36,13.87,36,24,36,32.84,0,7.12-2.32,12.54-7.11,16.55-5.86,4.93-15.52,7.64-27.18,7.64a99.15,99.15,0,0,1-49.86-14.05l-22.66-13.95L569.11,362l-8.54,28.35-4.38,14.53,12.62,8.42c18.07,12.05,49.49,20.14,78.17,20.14,34.07,0,62.68-9.63,82.75-27.84,19-17.2,29.4-41.34,29.4-68C759.13,313.49,751.89,293.79,737,277.41Z"/><rect class="cls-1" x="445.31" y="134.88" width="80.24" height="297.07"/><circle class="cls-1" cx="485.51" cy="51.28" r="51.28"/><path class="cls-1" d="M885.08,353.74A16.72,16.72,0,0,1,868.36,337V198.94H937.3v-64H868.36v-55H795V361.73a72.94,72.94,0,0,0,72.93,72.94h44.25L940,353.74Z"/></g></g></svg>